<svg width="350" height="360" xmlns="http://www.w3.org/2000/svg">
 <metadata id="metadata51">image/svg+xml</metadata>

 <g>
  <title>background</title>
  <rect fill="none" id="canvas_background" height="362" width="352" y="-1" x="-1"/>
 </g>
 <g>
  <title>Layer 1</title>
  <g id="layer7">
   <path fill="#ffffff" stroke="#000000" stroke-width="2" stroke-miterlimit="4" d="m233.18487,2.39496c-4.2206,59.11505 30.62588,126.81703 112.72496,120.12705l0,-1.21009l-0.30252,115.26051l0,0l0.15126,-0.15126c-59.26631,-4.06934 -119.58852,39.75156 -112.89854,121.85064l1.21009,0l-115.2605,-0.30252l0,0l0.15126,0.7563c4.06933,-58.66126 -30.26516,-127.65926 -112.36424,-120.96928l0,1.21009l0.30252,-115.26051l0,0l-0.15126,0.15127c59.26631,4.06933 119.07653,-39.66564 112.38655,-121.76472l-1.21009,0l115.26051,0.30252l0,0l-0.30253,-0.30252" id="path6780"/>
  </g>
  <g display="inline" id="layer1">
   <circle fill="#000000" stroke="#000000" stroke-width="0.996623" r="118.108498" cy="179.69278" cx="175.71948" id="path344"/>
   <g stroke="#ffffff" stroke-width="3.231348" stroke-miterlimit="4" transform="matrix(0.63116426,0,0,0.60694617,278.61327,276.93105) " id="g14338">
    <g stroke="#000000" stroke-width="3.231348" stroke-miterlimit="4" fill="#ffffff" id="layer33">
     <path fill="#ffffff" stroke="#000000" stroke-width="3.231348" stroke-miterlimit="4" d="m54.351567,-136.570239c-29.25902,-17.34638 -61.11103,-30.21398 -97.52731,-35.19783l0.97772,55.97432l51.57459,9.53274l-51.08573,1.71101c-0.59277,65.12566 13.0694,126.68758 26.88723,188.21059c-24.53415,-57.70013 -38.59513,-120.89497 -44.95878,-187.21282c-38.44998,-0.10892 -76.19246,6.85716 -113.72716,15.90106c30.40139,-40.22439 67.58876,-70.23254 107.84464,-100.73809c0.24698,-45.13795 0.84515,-90.2759 3.66644,-135.413852c-56.56087,48.506652 -98.81503,105.190412 -137.85815,168.900672c-8.59316,-39.06812 -16.02248,-79.59077 -17.95867,-121.14175c-28.89432,15.88169 -54.43023,36.91296 -73.56953,67.75235c22.14888,33.75767 43.50411,68.50742 68.09803,99.2088c1.19266,-32.50349 -0.81537,-64.98996 -2.07405,-97.48042c10.01653,40.53273 24.8833,81.60438 18.32079,120.29499c28.84929,37.56433 64.97111,67.12887 100.06658,97.8224c-35.63293,-21.91576 -71.24968,-46.52558 -101.92703,-79.68396c-1.83827,38.84235 -12.43521,72.29476 -22.4875,106.08233c-29.16657,-37.12973 -56.48353,-75.68223 -77.23967,-119.28151c22.88603,29.49091 46.29724,57.58133 71.12893,81.88382c6.46007,-21.79742 9.1298,-43.34621 11.04126,-65.79343c-41.06688,-25.55182 -85.42674,-38.80455 -130.811628,-49.57721c38.182408,61.04568 92.986538,119.13639 92.883148,186.98844c-41.87743,-81.85955 -103.88485,-152.87987 -161.81222,-226.09714c64.875806,13.12124 130.3131,22.84584 187.72173,53.2856c-29.54902,-32.0371 -55.68458,-67.48766 -82.63645,-102.12191c28.4264,-40.55025 57.2203,-78.82637 102.66556,-105.43096l1.03703,-30.41942c-42.8068,26.960919 -82.28768,61.91739 -116.146896,115.45554l-28.691048,-48.74021c58.722484,-58.472848 127.730704,-98.893785 198.071934,-138.270113c-22.05757,58.139961 -27.11104,128.762133 -14.51836,187.701673c47.35143,-63.7104 102.72751,-119.386055 156.93657,-164.541429c-16.18307,63.60425 -17.14615,127.208499 -20.04916,190.812749c54.8522,10.43583 103.14605,30.92798 145.18361,54.96237c-23.01493,7.98062 -45.7462,20.45372 -65.15879,32.03668l16.13234,-27.37608z" id="path14175"/>
    </g>
    <g stroke="#ffffff" stroke-width="3.231348" stroke-miterlimit="4" fill="#000000" id="layer32">
     <path fill="#000000" stroke="#ffffff" stroke-width="3.231348" stroke-miterlimit="4" d="m-64.929953,-164.924049l0,0c1.48819,15.80643 2.32377,31.61286 3.17759,47.41929c-20.64395,-3.66525 -42.07184,-2.11388 -62.08506,-0.73328c18.11247,-17.33924 36.92228,-33.86494 58.90747,-46.68601z" id="path13629"/>
    </g>
   </g>
  </g>
 </g>
</svg>