<?xml version="1.0" encoding="UTF-8" standalone="no"?>
<!DOCTYPE svg PUBLIC "-//W3C//DTD SVG 1.1//EN" "http://www.w3.org/Graphics/SVG/1.1/DTD/svg11.dtd">
<svg version="1.1" xmlns="http://www.w3.org/2000/svg" xmlns:xlink="http://www.w3.org/1999/xlink" preserveAspectRatio="xMidYMid meet" viewBox="0 0 360 360" width="360" height="360"><defs><path d="M236.93 1.99C232.71 61.1 267.56 128.8 349.66 122.11C349.66 122.03 349.66 121.63 349.66 120.9L349.35 236.16L349.35 236.16C349.44 236.07 349.5 236.02 349.51 236.01C290.24 231.94 229.92 275.76 236.61 357.86C236.69 357.86 237.09 357.86 237.82 357.86L122.56 357.56L122.56 357.56C122.65 358.01 122.7 358.27 122.71 358.32C126.78 299.66 92.44 230.66 10.34 237.35C10.34 237.43 10.34 237.83 10.34 238.56L10.65 123.3L10.65 123.3C10.56 123.39 10.5 123.44 10.49 123.45C69.76 127.52 129.57 83.78 122.88 1.68C122.8 1.68 122.4 1.68 121.67 1.68L236.93 1.99L236.93 1.99L236.63 1.68" id="aV1RXTIsN"></path><path d="M179.47 61.18C114.24 61.18 61.36 114.05 61.36 179.28C61.36 244.51 114.24 297.39 179.47 297.39C244.7 297.39 297.57 244.51 297.57 179.28C297.57 114.05 244.7 61.18 179.47 61.18Z" id="f1j3GHXRyS"></path><path d="M316.66 193.63C298.2 183.1 278.09 175.29 255.11 172.27C255.15 174.53 255.36 185.86 255.73 206.24L288.28 212.03C268.93 212.65 258.18 213 256.03 213.07C255.66 252.59 264.28 289.96 273 327.3C257.52 292.28 248.65 253.92 244.63 213.67C220.36 213.61 196.54 217.83 172.85 223.32C192.04 198.91 215.51 180.7 240.92 162.18C241.07 134.78 241.45 107.39 243.23 79.99C207.53 109.43 180.86 143.84 156.22 182.5C150.8 158.79 146.11 134.2 144.88 108.98C126.65 118.62 110.53 131.38 98.45 150.1C112.43 170.59 125.91 191.68 141.43 210.31C142.18 190.59 140.92 170.87 140.12 151.15C146.44 175.75 155.83 200.68 151.68 224.16C169.89 246.96 192.69 264.91 214.84 283.53C192.35 270.23 169.87 255.3 150.51 235.17C149.35 258.75 142.66 279.05 136.32 299.56C117.91 277.02 100.67 253.62 87.57 227.16C102.01 245.06 116.79 262.11 132.46 276.86C136.54 263.63 138.22 250.55 139.43 236.93C113.51 221.42 85.51 213.37 56.87 206.83C80.96 243.89 115.56 279.14 115.49 320.33C89.06 270.64 49.92 227.54 13.36 183.1C54.31 191.06 95.61 196.96 131.84 215.44C113.19 195.99 96.7 174.48 79.69 153.46C97.63 128.85 115.8 105.61 144.48 89.47C144.55 87.62 145.07 72.85 145.14 71C118.12 87.37 93.2 108.58 71.83 141.08C70.02 138.12 55.53 114.45 53.72 111.5C90.79 76.01 134.34 51.47 178.74 27.57C164.82 62.86 161.63 105.72 169.58 141.5C199.46 102.83 234.41 69.04 268.63 41.63C258.41 80.23 257.81 118.84 255.97 157.44C290.59 163.78 321.08 176.21 347.61 190.8C333.08 195.65 318.74 203.22 306.48 210.25C308.52 206.92 314.63 196.95 316.66 193.63Z" id="e16Z51RHCd"></path><path d="M241.38 176.42C242.32 186.02 242.85 195.61 243.38 205.2C230.35 202.98 216.83 203.92 204.2 204.76C215.63 194.23 227.5 184.2 241.38 176.42C241.38 176.42 241.38 176.42 241.38 176.42Z" id="e3boZ7caxH"></path></defs><g><g><g><use xlink:href="#aV1RXTIsN" opacity="1" fill="#ffffff" fill-opacity="1"></use><g><use xlink:href="#aV1RXTIsN" opacity="1" fill-opacity="0" stroke="#000000" stroke-width="2" stroke-opacity="1"></use></g></g><g><use xlink:href="#f1j3GHXRyS" opacity="1" fill="#000000" fill-opacity="1"></use><g><use xlink:href="#f1j3GHXRyS" opacity="1" fill-opacity="0" stroke="#000000" stroke-width="1" stroke-opacity="1"></use></g></g><g><use xlink:href="#e16Z51RHCd" opacity="1" fill="#ffffff" fill-opacity="1"></use><g><use xlink:href="#e16Z51RHCd" opacity="1" fill-opacity="0" stroke="#000000" stroke-width="3.23" stroke-opacity="1"></use></g></g><g><use xlink:href="#e3boZ7caxH" opacity="1" fill="#000000" fill-opacity="1"></use><g><use xlink:href="#e3boZ7caxH" opacity="1" fill-opacity="0" stroke="#ffffff" stroke-width="3.23" stroke-opacity="1"></use></g></g></g></g></svg>