<svg width="350" height="360" xmlns="http://www.w3.org/2000/svg">
 <metadata id="metadata51">image/svg+xml</metadata>

 <g>
  <title>background</title>
  <rect fill="none" id="canvas_background" height="362" width="352" y="-1" x="-1"/>
 </g>
 <g>
  <title>Layer 1</title>
  <g display="none" id="layer2">
   <rect fill="#000000" stroke="#ee0000" stroke-width="2" stroke-miterlimit="4" y="18.60593" x="9.65604" height="326.00595" width="326.00595" id="rect1152"/>
  </g>
  <g display="none" id="g1160">
   <rect fill="#000000" stroke="#ee0000" stroke-width="2" stroke-miterlimit="4" transform="translate(-271,-245) scale(1,-1) " id="rect1158" width="302.90317" height="304.61447" x="292.86807" y="-581.1413"/>
  </g>
  <g id="layer7">
   <path fill="#ffffff" stroke="#b34a04" stroke-width="2" stroke-miterlimit="4" d="m231.18487,2.39496c-4.2206,59.11505 30.62588,126.81703 112.72496,120.12705l0,-1.21009l-0.30252,115.26051l0,0l0.15126,-0.15126c-59.26631,-4.06934 -119.58852,39.75156 -112.89854,121.85064l1.21009,0l-115.2605,-0.30252l0,0l0.15126,0.7563c4.06933,-58.66126 -30.26516,-127.65926 -112.36424,-120.96928l0,1.21009l0.30252,-115.26051l0,0l-0.15126,0.15127c59.26631,4.06933 119.07653,-39.66564 112.38655,-121.76472l-1.21009,0l115.26051,0.30252l0,0l-0.30253,-0.30252" id="path6780"/>
  </g>
  <g display="inline" id="layer1">
   <circle fill="#b34a04" stroke-width="0.996623" r="118.108498" cy="179.69278" cx="173.71948" id="path344"/>
  </g>
  <g id="layer12">
   <path fill="#000000" stroke="#ffffff" stroke-width="1.205213" stroke-miterlimit="4" d="m113.58946,231.74847l6.56054,1.17753l5.21479,0l6.56055,-0.16821l6.22411,-1.34575l1.68218,-0.67289l-1.34575,-1.01951l-7.40164,-0.15802c-3.42347,-0.11213 -7.20785,-0.22429 -10.93424,-0.33644l-5.09585,-0.0696l-5.50196,0.0696c0,0 -2.2289,0.25234 -2.90178,0.25234c-0.67287,0 -2.82026,0.50944 -2.82026,0.50944l-2.26724,0.33221l-11.89487,2.37899c-3.64777,0.56975 -7.29553,1.37562 -10.9433,2.61687l-8.32642,2.85477c-1.87913,0.84186 -2.79091,1.52248 -3.33056,2.14109l1.42738,0.71368l9.04012,-0.23789l12.37067,1.18948l12.37069,2.37899l14.51175,3.80635l10.7054,3.56847l12.37068,4.99586l7.61272,3.80636l9.99171,5.94745l11.18119,7.85061l-5.23374,-0.23789l-9.75381,0l-15.93914,0.7137l-14.98757,1.42737l-7.37482,0.47581l-12.37069,2.37898l-15.70125,3.56847l-16.17704,4.75795l-17.12864,6.42323l-13.65871,6.47848c-4.90693,2.23096 -8.8018,4.91722 -12.98582,7.31958l-9.04012,5.94745l-11.89488,8.08852l2.00172,-3.48436l7.98998,-8.17262l10.7054,-9.75381l16.17704,-11.4191l14.27386,-8.5643l14.98756,-7.37483l9.92203,-4.89731l20.34623,-7.09613l2.56162,-1.32884c-0.61632,-0.82545 -0.95721,-1.74271 -2.85477,-2.14107l-15.46335,-3.80638c-11.40956,-2.23942 -23.63102,-2.85505 -35.92255,-3.33056l-14.27387,-0.23791l4.52005,-4.04425l6.18535,-4.75795l5.94744,-4.04427l5.41641,-4.09951l8.14377,-4.70271l5.72397,-2.99412l6.64671,-2.71542l8.32642,-3.09266l9.9917,-2.61687l7.85061,-1.90319l10.22961,-1.42739l9.27802,-1.18948l10.46749,-0.23791l11.65699,0.95159l12.37068,1.42739l3.33057,0.4758c0,0 1.18948,-3.09268 1.66528,-4.04426c0.4758,-0.9516 0.2379,-2.85478 0.2379,-4.28217c0,-1.42737 -0.2379,-8.80221 -0.2379,-8.80221l-0.95159,-8.56432l-3.09267,-5.23375l-6.66113,-5.94743l-3.70782,-2.29736l-7.23548,-3.65009l-9.7538,-3.09268l-14.27386,-2.61686l-14.03597,-4.28216l-7.13693,-2.85477l-9.75381,-4.75797l-9.27801,-4.99584l-5.70954,-4.04427l-8.56432,-6.42324c-3.32459,-3.33655 -6.12319,-7.19909 -8.32642,-11.65699c-2.26737,-4.01901 -4.08681,-8.12758 -5.23374,-12.37068l-1.9032,-14.03596c0.0975,-7.50341 -0.37186,-14.89348 0.74256,-22.60027l0.68483,-13.79809l-0.36282,-9.12421l-1.06457,-6.33913l-2.1555,-8.41053c-1.38852,-3.3366 -3.40944,-6.04079 -5.45723,-8.71811l-7.37482,-7.61272l-4.04426,-4.04427l4.75796,2.14109l7.37483,4.75795c5.4486,3.31513 9.32085,7.53322 12.74793,12.46922c3.41145,4.25713 5.45091,9.31811 7.05282,14.58145l0.64401,16.09292l-1.17505,15.85504c-0.86904,5.47166 -0.43576,10.94331 -0.2379,16.41495c0.48563,3.31828 1.01373,6.58346 2.37898,8.80221c0.83357,3.27973 2.16393,6.21661 5.30343,9.05456c4.07816,7.04282 12.41144,11.09836 19.43793,16.1626c5.20067,3.46288 10.77666,5.42449 16.17705,8.08852c7.21622,2.52883 14.43245,4.97739 21.64869,6.18533l22.36238,5.23376l10.9433,4.52006c5.50977,2.78599 8.06396,8.13387 14.74966,9.7538c1.63689,0.39477 2.65269,-0.54554 3.80636,-1.18948l2.85476,-2.14109l5.47165,-4.52005c3.26839,-1.77139 6.13913,-3.84103 10.22961,-4.99585c3.72706,-1.40925 7.45412,-2.79887 11.18119,-3.33057l15.70125,-4.28216l9.75381,-2.14107c3.66556,-0.92787 7.56562,-1.57108 10.56604,-3.38582c2.93407,-0.77401 5.5317,-2.64092 8.46577,-3.75112l10.7054,-5.94745l8.56432,-5.70954l6.66114,-5.47165l4.75795,-6.18534l3.80636,-9.5159l1.18949,-8.56432l0,-7.85063l-0.4758,-5.47165l-0.95159,-10.94329l-0.47579,-8.32642c0,0 0.47579,-6.42323 0.47579,-7.37482c0,-0.95159 0.4758,-4.52006 0.4758,-4.52006c0,0 1.42738,-5.94745 1.90318,-7.13693c0.4758,-1.1895 2.14108,-3.56847 2.14108,-3.56847l4.07312,-5.8489l1.80464,-2.22767c4.72996,-5.03254 4.03758,-4.03334 6.25502,-6.19729l10.71983,-7.10808l5.93301,-2.16994l-2.61687,1.90319l-5.70954,5.23374c-2.24001,1.65221 -3.62053,3.87739 -5.23375,5.94744l-4.28216,7.61273l-1.90319,6.18534c-0.4349,2.71538 -1.06248,5.44297 -1.05013,7.93475c-0.35558,2.74338 -0.80291,5.3224 -0.72812,7.85061l0.35087,8.71812l1.42738,10.70539l0.4758,9.75379l-0.2379,8.56433l-2.14108,13.56017c-1.22014,5.69423 -3.90242,10.65738 -6.89903,15.46335l-7.61273,9.51592l-5.23375,4.04425c0,0 -9.9917,6.42324 -10.7054,7.37482c-0.71369,0.9516 -10.22959,5.47165 -10.22959,5.47165l-9.27802,4.04427c-4.3003,1.19855 -8.94479,2.56921 -12.84648,3.56846l-7.85062,2.14108l-14.74966,3.80638c-3.54749,0.62488 -7.05782,1.47266 -10.38338,3.4291l-11.02741,6.5626l-5.70955,5.94743l-0.95159,2.85477l-0.47579,22.83819l0.95159,3.56847c0,0 2.14108,-0.47581 3.56847,-0.47581c1.42738,0 9.5159,-1.66528 9.5159,-1.66528l6.18534,-0.47579l10.4675,-0.23789l9.75381,0l9.04011,0.71368l12.37068,2.37898l12.84648,3.33057l11.1812,3.56847l9.04011,4.28215l9.5159,4.99586l14.03597,10.22959l9.75381,8.56433l-3.56847,0l-12.60858,0l-9.9917,0.23789l-14.03597,1.18949l-12.91616,2.36455c-4.36624,0.93245 -8.88309,2.18767 -13.25259,3.10711c-1.47164,0.57261 -2.01034,1.6117 -2.14108,2.85477l5.70955,1.66529l7.85063,3.09265l12.13278,4.99587l13.79806,5.94743l16.41495,9.27802l13.79806,8.32642l7.37484,5.94743l7.61272,6.66115l7.85063,7.13693l6.18533,7.61272l-4.52002,-3.09266l-7.13696,-4.28217l-7.85063,-5.70953l-10.53718,-5.50053l-15.22545,-7.3604l-12.5389,-5.2193l-8.80222,-2.85479l-12.84648,-3.80636l-10.94329,-2.61687l-13.56016,-2.37897l-9.04012,-1.42739c0,0 -13.09254,-2.03079 -14.27386,-2.16995c-0.7433,-0.0876 -9.32051,-1.1214 -9.9917,-0.74255l-8.32643,-0.18017l-18.08023,0.71368l2.85477,-2.14107l6.89905,-4.04427l7.13693,-4.52005l9.9917,-5.23374l10.7054,-4.99586l10.70539,-3.80636l22.1245,-6.42324l17.84231,-1.90318l13.79808,-0.23791c1.33921,-0.38966 1.38943,-1.06576 0.71369,-1.90318l-8.08852,-2.85476l-4.28216,-1.4274l-9.27801,-2.37896l-11.65699,-1.90318l-9.51591,-0.7137l-9.9917,0l-14.74966,-0.23789l-6.66113,1.18948c1.93041,0.31719 3.50212,0.63439 5.23374,0.95159l4.99585,1.18948l8.49465,0.21151l7.2066,-1.1631l8.32643,-0.71369l-3.33058,2.14108l-7.86505,3.06381l-9.50148,2.16995l-12.13278,1.18948l-11.89489,-0.7137l-15.22546,-2.14107l-6.66113,-0.95159l-3.56846,0.7137l-11.1812,1.66527l-11.18119,1.42739l-11.65699,-0.2379l-14.51176,-2.14109l-9.9917,-3.09265l-5.8992,-3.90368l6.50665,1.2887z" id="path8943"/>
  </g>
 </g>
</svg>