<?xml version="1.0" encoding="UTF-8" standalone="no"?>
<!-- Created with Inkscape (http://www.inkscape.org/) -->

<svg
   xmlns:dc="http://purl.org/dc/elements/1.1/"
   xmlns:cc="http://creativecommons.org/ns#"
   xmlns:rdf="http://www.w3.org/1999/02/22-rdf-syntax-ns#"
   xmlns:svg="http://www.w3.org/2000/svg"
   xmlns="http://www.w3.org/2000/svg"
   xmlns:sodipodi="http://sodipodi.sourceforge.net/DTD/sodipodi-0.dtd"
   xmlns:inkscape="http://www.inkscape.org/namespaces/inkscape"
   version="1.1"
   id="svg45"
   width="864"
   height="864"
   viewBox="0 0 864 864"
   sodipodi:docname="ENG DIV icon3.svg"
   inkscape:version="0.92.2 5c3e80d, 2017-08-06">
  <metadata
     id="metadata51">
    <rdf:RDF>
      <cc:Work
         rdf:about="">
        <dc:format>image/svg+xml</dc:format>
        <dc:type
           rdf:resource="http://purl.org/dc/dcmitype/StillImage" />
        <dc:title></dc:title>
      </cc:Work>
    </rdf:RDF>
  </metadata>
  <defs
     id="defs49" />
  <sodipodi:namedview
     pagecolor="#ffffff"
     bordercolor="#666666"
     borderopacity="1"
     objecttolerance="10"
     gridtolerance="10"
     guidetolerance="10"
     inkscape:pageopacity="0"
     inkscape:pageshadow="2"
     inkscape:window-width="1662"
     inkscape:window-height="908"
     id="namedview47"
     showgrid="false"
     showguides="true"
     inkscape:guide-bbox="true"
     inkscape:zoom="1.6527778"
     inkscape:cx="481.66371"
     inkscape:cy="436.55208"
     inkscape:window-x="0"
     inkscape:window-y="0"
     inkscape:window-maximized="0"
     inkscape:current-layer="layer7" />
  <g
     inkscape:groupmode="layer"
     id="layer2"
     inkscape:label="square"
     style="display:none">
    <rect
       style="fill:#000000;fill-opacity:1;stroke:#ee0000;stroke-width:2;stroke-miterlimit:4;stroke-dasharray:none;stroke-opacity:1"
       id="rect1152"
       width="326.00595"
       height="326.00595"
       x="280.65604"
       y="267.60593" />
  </g>
  <g
     inkscape:label="square copy"
     id="g1160"
     inkscape:groupmode="layer"
     style="display:none">
    <rect
       y="-585.1413"
       x="292.86807"
       height="304.61447"
       width="302.90317"
       id="rect1158"
       style="display:none;fill:#000000;fill-opacity:1;stroke:#ee0000;stroke-width:2;stroke-miterlimit:4;stroke-dasharray:none;stroke-opacity:1"
       transform="scale(1,-1)" />
  </g>
  <g
     inkscape:groupmode="layer"
     id="layer7"
     inkscape:label="merge">
    <path
       id="path6780"
       style="display:inline;fill:#ffffff;fill-opacity:1;stroke:#b34a04;stroke-width:2;stroke-linecap:butt;stroke-linejoin:miter;stroke-miterlimit:4;stroke-dasharray:none;stroke-opacity:1"
       d="m 502.18487,251.39496 c -4.2206,59.11505 30.62588,126.81703 112.72496,120.12705 v -1.21009 l -0.30252,115.26051 v 0 l 0.15126,-0.15126 c -59.26631,-4.06934 -119.58852,39.75156 -112.89854,121.85064 h 1.21009 l -115.2605,-0.30252 v 0 l 0.15126,0.7563 C 392.03021,549.06433 357.69572,480.06633 275.59664,486.75631 v 1.21009 l 0.30252,-115.26051 v 0 l -0.15126,0.15127 c 59.26631,4.06933 119.07653,-39.66564 112.38655,-121.76472 h -1.21009 l 115.26051,0.30252 v 0 l -0.30253,-0.30252"
       inkscape:connector-curvature="0"
       sodipodi:nodetypes="ccccccccccccccccccccc" />
  </g>
  <g
     inkscape:groupmode="layer"
     id="layer1"
     inkscape:label="circle"
     style="display:inline">
    <circle
       id="path344"
       cx="444.71948"
       cy="428.69278"
       r="118.1085"
       style="fill:#b34a04;fill-opacity:1;stroke-width:0.99662274" />
  </g>
  <g
     inkscape:groupmode="layer"
     id="layer12"
     inkscape:label="eng shape">
    <path
       id="path8943"
       style="fill:#000000;fill-opacity:1;stroke:#ffffff;stroke-width:1.20521259;stroke-linecap:butt;stroke-linejoin:miter;stroke-miterlimit:4;stroke-dasharray:none;stroke-opacity:1"
       d="M 384.58946,480.74847 391.15,481.926 h 5.21479 l 6.56055,-0.16821 6.22411,-1.34575 1.68218,-0.67289 -1.34575,-1.01951 -7.40164,-0.15802 c -3.42347,-0.11213 -7.20785,-0.22429 -10.93424,-0.33644 l -5.09585,-0.0696 -5.50196,0.0696 c 0,0 -2.2289,0.25234 -2.90178,0.25234 -0.67287,0 -2.82026,0.50944 -2.82026,0.50944 l -2.26724,0.33221 -11.89487,2.37899 c -3.64777,0.56975 -7.29553,1.37562 -10.9433,2.61687 l -8.32642,2.85477 c -1.87913,0.84186 -2.79091,1.52248 -3.33056,2.14109 l 1.42738,0.71368 9.04012,-0.23789 12.37067,1.18948 12.37069,2.37899 14.51175,3.80635 10.7054,3.56847 12.37068,4.99586 7.61272,3.80636 9.99171,5.94745 11.18119,7.85061 -5.23374,-0.23789 h -9.75381 l -15.93914,0.7137 -14.98757,1.42737 -7.37482,0.47581 -12.37069,2.37898 -15.70125,3.56847 -16.17704,4.75795 -17.12864,6.42323 -13.65871,6.47848 c -4.90693,2.23096 -8.8018,4.91722 -12.98582,7.31958 l -9.04012,5.94745 -11.89488,8.08852 2.00172,-3.48436 7.98998,-8.17262 10.7054,-9.75381 16.17704,-11.4191 14.27386,-8.5643 14.98756,-7.37483 9.92203,-4.89731 20.34623,-7.09613 2.56162,-1.32884 c -0.61632,-0.82545 -0.95721,-1.74271 -2.85477,-2.14107 l -15.46335,-3.80638 c -11.40956,-2.23942 -23.63102,-2.85505 -35.92255,-3.33056 l -14.27387,-0.23791 4.52005,-4.04425 6.18535,-4.75795 5.94744,-4.04427 5.41641,-4.09951 8.14377,-4.70271 5.72397,-2.99412 6.64671,-2.71542 8.32642,-3.09266 9.9917,-2.61687 7.85061,-1.90319 10.22961,-1.42739 9.27802,-1.18948 10.46749,-0.23791 11.65699,0.95159 12.37068,1.42739 3.33057,0.4758 c 0,0 1.18948,-3.09268 1.66528,-4.04426 0.4758,-0.9516 0.2379,-2.85478 0.2379,-4.28217 0,-1.42737 -0.2379,-8.80221 -0.2379,-8.80221 l -0.95159,-8.56432 -3.09267,-5.23375 -6.66113,-5.94743 -3.70782,-2.29736 -7.23548,-3.65009 -9.7538,-3.09268 -14.27386,-2.61686 -14.03597,-4.28216 -7.13693,-2.85477 -9.75381,-4.75797 -9.27801,-4.99584 -5.70954,-4.04427 -8.56432,-6.42324 c -3.32459,-3.33655 -6.12319,-7.19909 -8.32642,-11.65699 -2.26737,-4.01901 -4.08681,-8.12758 -5.23374,-12.37068 l -1.9032,-14.03596 c 0.0975,-7.50341 -0.37186,-14.89348 0.74256,-22.60027 l 0.68483,-13.79809 -0.36282,-9.12421 -1.06457,-6.33913 -2.1555,-8.41053 c -1.38852,-3.3366 -3.40944,-6.04079 -5.45723,-8.71811 l -7.37482,-7.61272 -4.04426,-4.04427 4.75796,2.14109 7.37483,4.75795 c 5.4486,3.31513 9.32085,7.53322 12.74793,12.46922 3.41145,4.25713 5.45091,9.31811 7.05282,14.58145 l 0.64401,16.09292 -1.17505,15.85504 c -0.86904,5.47166 -0.43576,10.94331 -0.2379,16.41495 0.48563,3.31828 1.01373,6.58346 2.37898,8.80221 0.83357,3.27973 2.16393,6.21661 5.30343,9.05456 4.07816,7.04282 12.41144,11.09836 19.43793,16.1626 5.20067,3.46288 10.77666,5.42449 16.17705,8.08852 7.21622,2.52883 14.43245,4.97739 21.64869,6.18533 l 22.36238,5.23376 10.9433,4.52006 c 5.50977,2.78599 8.06396,8.13387 14.74966,9.7538 1.63689,0.39477 2.65269,-0.54554 3.80636,-1.18948 l 2.85476,-2.14109 5.47165,-4.52005 c 3.26839,-1.77139 6.13913,-3.84103 10.22961,-4.99585 3.72706,-1.40925 7.45412,-2.79887 11.18119,-3.33057 l 15.70125,-4.28216 9.75381,-2.14107 c 3.66556,-0.92787 7.56562,-1.57108 10.56604,-3.38582 2.93407,-0.77401 5.5317,-2.64092 8.46577,-3.75112 l 10.7054,-5.94745 8.56432,-5.70954 6.66114,-5.47165 4.75795,-6.18534 3.80636,-9.5159 1.18949,-8.56432 v -7.85063 l -0.4758,-5.47165 -0.95159,-10.94329 -0.47579,-8.32642 c 0,0 0.47579,-6.42323 0.47579,-7.37482 0,-0.95159 0.4758,-4.52006 0.4758,-4.52006 0,0 1.42738,-5.94745 1.90318,-7.13693 0.4758,-1.1895 2.14108,-3.56847 2.14108,-3.56847 l 4.07312,-5.8489 1.80464,-2.22767 c 4.72996,-5.03254 4.03758,-4.03334 6.25502,-6.19729 l 10.71983,-7.10808 5.93301,-2.16994 -2.61687,1.90319 -5.70954,5.23374 c -2.24001,1.65221 -3.62053,3.87739 -5.23375,5.94744 l -4.28216,7.61273 -1.90319,6.18534 c -0.4349,2.71538 -1.06248,5.44297 -1.05013,7.93475 -0.35558,2.74338 -0.80291,5.3224 -0.72812,7.85061 l 0.35087,8.71812 1.42738,10.70539 0.4758,9.75379 -0.2379,8.56433 -2.14108,13.56017 c -1.22014,5.69423 -3.90242,10.65738 -6.89903,15.46335 l -7.61273,9.51592 -5.23375,4.04425 c 0,0 -9.9917,6.42324 -10.7054,7.37482 -0.71369,0.9516 -10.22959,5.47165 -10.22959,5.47165 l -9.27802,4.04427 c -4.3003,1.19855 -8.94479,2.56921 -12.84648,3.56846 l -7.85062,2.14108 -14.74966,3.80638 c -3.54749,0.62488 -7.05782,1.47266 -10.38338,3.4291 l -11.02741,6.5626 -5.70955,5.94743 -0.95159,2.85477 -0.47579,22.83819 0.95159,3.56847 c 0,0 2.14108,-0.47581 3.56847,-0.47581 1.42738,0 9.5159,-1.66528 9.5159,-1.66528 l 6.18534,-0.47579 10.4675,-0.23789 h 9.75381 l 9.04011,0.71368 12.37068,2.37898 12.84648,3.33057 11.1812,3.56847 9.04011,4.28215 9.5159,4.99586 14.03597,10.22959 9.75381,8.56433 h -3.56847 -12.60858 l -9.9917,0.23789 -14.03597,1.18949 -12.91616,2.36455 c -4.36624,0.93245 -8.88309,2.18767 -13.25259,3.10711 -1.47164,0.57261 -2.01034,1.6117 -2.14108,2.85477 l 5.70955,1.66529 7.85063,3.09265 12.13278,4.99587 13.79806,5.94743 16.41495,9.27802 13.79806,8.32642 7.37484,5.94743 7.61272,6.66115 7.85063,7.13693 6.18533,7.61272 -4.52002,-3.09266 -7.13696,-4.28217 -7.85063,-5.70953 -10.53718,-5.50053 -15.22545,-7.3604 -12.5389,-5.2193 -8.80222,-2.85479 -12.84648,-3.80636 -10.94329,-2.61687 -13.56016,-2.37897 -9.04012,-1.42739 c 0,0 -13.09254,-2.03079 -14.27386,-2.16995 -0.7433,-0.0876 -9.32051,-1.1214 -9.9917,-0.74255 l -8.32643,-0.18017 -18.08023,0.71368 2.85477,-2.14107 6.89905,-4.04427 7.13693,-4.52005 9.9917,-5.23374 10.7054,-4.99586 10.70539,-3.80636 22.1245,-6.42324 17.84231,-1.90318 13.79808,-0.23791 c 1.33921,-0.38966 1.38943,-1.06576 0.71369,-1.90318 l -8.08852,-2.85476 -4.28216,-1.4274 -9.27801,-2.37896 -11.65699,-1.90318 -9.51591,-0.7137 h -9.9917 l -14.74966,-0.23789 -6.66113,1.18948 c 1.93041,0.31719 3.50212,0.63439 5.23374,0.95159 l 4.99585,1.18948 8.49465,0.21151 7.2066,-1.1631 8.32643,-0.71369 -3.33058,2.14108 -7.86505,3.06381 -9.50148,2.16995 -12.13278,1.18948 -11.89489,-0.7137 -15.22546,-2.14107 -6.66113,-0.95159 -3.56846,0.7137 -11.1812,1.66527 -11.18119,1.42739 -11.65699,-0.2379 -14.51176,-2.14109 -9.9917,-3.09265 -5.8992,-3.90368 z"
       inkscape:connector-curvature="0"
       sodipodi:nodetypes="cccccccccccscccccccccccccccccccccccccccccccccccccccccccccccccccccccccccscccccccccccccccccccccccccccccccccccccccccccccccccccccccccccscscccccccccccccccccccccccccccccccccscccccccccccccccccccccccccccccccccccccccccccccccccccccccccccccccccccccccccccccccccc" />
  </g>
</svg>
