<?xml version="1.0" encoding="UTF-8" standalone="no"?>
<!-- Created with Inkscape (http://www.inkscape.org/) -->

<svg
   xmlns:dc="http://purl.org/dc/elements/1.1/"
   xmlns:cc="http://creativecommons.org/ns#"
   xmlns:rdf="http://www.w3.org/1999/02/22-rdf-syntax-ns#"
   xmlns:svg="http://www.w3.org/2000/svg"
   xmlns="http://www.w3.org/2000/svg"
   xmlns:sodipodi="http://sodipodi.sourceforge.net/DTD/sodipodi-0.dtd"
   xmlns:inkscape="http://www.inkscape.org/namespaces/inkscape"
   version="1.1"
   id="svg45"
   width="864"
   height="864"
   viewBox="0 0 864 864"
   sodipodi:docname="FLI DIV icon3.svg"
   inkscape:version="0.92.2 5c3e80d, 2017-08-06">
  <metadata
     id="metadata51">
    <rdf:RDF>
      <cc:Work
         rdf:about="">
        <dc:format>image/svg+xml</dc:format>
        <dc:type
           rdf:resource="http://purl.org/dc/dcmitype/StillImage" />
        <dc:title />
      </cc:Work>
    </rdf:RDF>
  </metadata>
  <defs
     id="defs49" />
  <sodipodi:namedview
     pagecolor="#ffffff"
     bordercolor="#666666"
     borderopacity="1"
     objecttolerance="10"
     gridtolerance="10"
     guidetolerance="10"
     inkscape:pageopacity="0"
     inkscape:pageshadow="2"
     inkscape:window-width="1662"
     inkscape:window-height="908"
     id="namedview47"
     showgrid="false"
     showguides="true"
     inkscape:guide-bbox="true"
     inkscape:zoom="2.3822883"
     inkscape:cx="455.95539"
     inkscape:cy="402.33713"
     inkscape:window-x="0"
     inkscape:window-y="0"
     inkscape:window-maximized="0"
     inkscape:current-layer="layer19" />
  <g
     inkscape:groupmode="layer"
     id="layer7"
     inkscape:label="merge">
    <path
       id="path6780"
       style="display:inline;fill:#ffffff;fill-opacity:1;stroke:#888686;stroke-width:2;stroke-linecap:butt;stroke-linejoin:miter;stroke-miterlimit:4;stroke-dasharray:none;stroke-opacity:1"
       d="m 502.18487,251.39496 c -4.2206,59.11505 30.62588,126.81703 112.72496,120.12705 v -1.21009 l -0.30252,115.26051 v 0 l 0.15126,-0.15126 c -59.26631,-4.06934 -119.58852,39.75156 -112.89854,121.85064 h 1.21009 l -115.2605,-0.30252 v 0 l 0.15126,0.7563 C 392.03021,549.06433 357.69572,480.06633 275.59664,486.75631 v 1.21009 l 0.30252,-115.26051 v 0 l -0.15126,0.15127 c 59.26631,4.06933 119.07653,-39.66564 112.38655,-121.76472 h -1.21009 l 115.26051,0.30252 v 0 l -0.30253,-0.30252"
       inkscape:connector-curvature="0"
       sodipodi:nodetypes="ccccccccccccccccccccc" />
  </g>
  <g
     inkscape:groupmode="layer"
     id="layer1"
     inkscape:label="circle"
     style="display:inline">
    <circle
       id="path344"
       cx="444.71948"
       cy="428.69278"
       r="118.1085"
       style="fill:#888686;fill-opacity:1;stroke-width:0.99662274" />
  </g>
  <g
     inkscape:groupmode="layer"
     id="layer19"
     inkscape:label="fli shape">
    <path
       id="path10474"
       style="fill:#000000;fill-opacity:1;stroke:#ffffff;stroke-width:2;stroke-linecap:butt;stroke-linejoin:miter;stroke-miterlimit:4;stroke-dasharray:none;stroke-opacity:1"
       d="m 451.59601,411.36358 c 5.69372,12.49596 13.8455,22.14494 24.13718,29.52592 -13.12401,-1.69349 -25.31347,1.14541 -37.01032,6.37344 -4.73795,-10.96929 -11.89892,-20.76343 -23.06439,-28.61542 L 414.988,417.8671 c 13.38153,1.45318 25.36738,-1.38068 36.60801,-6.50352 z m -86.89377,-11.7063 c 3.82848,6.32542 10.86497,9.15015 17.4324,12.48674 8.43147,3.69974 13.73204,10.13273 18.63925,16.90911 3.70486,5.11608 6.00414,10.23217 8.71621,15.34827 -20.8425,-3.47949 -40.32257,1.38163 -56.85643,8.97483 -15.59333,5.80366 -26.2516,17.5563 -37.68078,28.74549 -12.42541,12.74241 -20.61929,30.87202 -27.35545,50.85742 -4.92004,17.76155 -4.68889,36.65137 1.47504,56.84063 2.44039,5.80613 5.84639,11.21768 12.06858,15.47834 l 0.13409,-0.26014 c -6.8617,-18.75996 -8.08439,-38.79225 -2.5478,-58.53154 7.74866,-20.50096 16.45471,-40.40491 34.06022,-54.75952 16.65744,-14.60473 34.65659,-23.02773 54.1745,-24.45318 15.83092,-2.107 31.21582,1.93752 43.0446,10.40561 8.56593,6.74529 16.88519,13.75158 21.58934,24.58324 3.93114,9.25631 5.62459,19.40638 3.48649,31.08676 -0.83573,4.08309 -2.29371,8.31706 -4.55925,12.74686 l 0.53639,-0.13005 c 1.72887,-1.44473 3.82953,-2.5288 4.55924,-4.94267 4.6176,-6.63358 5.26965,-13.39723 7.64343,-20.0308 0.3771,-9.49512 0.87922,-18.86014 -1.47504,-28.35528 -1.33483,-6.36714 -3.85474,-12.27448 -6.97296,-17.94967 l -4.15695,-5.72309 c 3.13172,-6.79101 10.51659,-15.25835 22.12966,-16.04485 7.66234,-2.49963 17.5248,-0.22963 24.13322,-0.34398 6.96586,0.57055 13.14263,1.90645 19.04154,3.51189 l 10.59354,3.12169 v -0.13007 c -2.58412,-4.03458 -7.0439,-6.84087 -11.93449,-9.36507 l -9.78897,-4.81259 c -6.17823,-4.17595 -10.8431,-9.57519 -14.88457,-15.47833 -3.71367,-5.18148 -7.5425,-10.37414 -7.77753,-15.2182 16.08872,1.71586 31.67571,0.025 46.66516,-5.72309 14.25178,-4.52487 25.10325,-11.84056 34.7307,-20.16086 10.00605,-8.71028 17.96308,-18.68592 24.94172,-29.26577 8.28513,-14.38149 14.79935,-29.06613 17.03012,-44.48396 0.9783,-9.66932 1.5805,-19.38418 -0.2682,-29.39585 -0.55087,-7.06088 -3.34871,-13.70618 -5.63199,-20.42101 -1.72394,-3.31384 -3.55194,-6.52673 -5.63201,-9.49512 -1.63743,-2.28949 -3.84983,-2.7256 -6.0343,-3.25174 6.78928,17.22674 9.55493,34.19329 5.63202,50.72733 -2.97052,17.14862 -9.77403,32.23171 -19.17564,45.91475 -10.22119,14.23532 -24.22902,24.79764 -39.42404,34.20842 -13.79249,6.78409 -28.295,9.57528 -43.44688,8.7147 -19.0322,-1.07877 -29.78716,-8.99688 -39.28993,-17.94966 -7.83566,-7.61227 -13.87425,-16.15421 -16.35962,-26.53433 -1.09554,-7.41161 -1.81012,-14.78218 0.26818,-21.85175 0.57309,-5.25133 2.60001,-9.56253 4.15696,-14.17764 -4.64371,5.82295 -8.64754,11.95719 -11.12991,19.5105 -3.56728,8.36785 -2.61647,16.86576 -2.41372,25.23361 1.04475,7.52693 2.84828,14.93116 6.03429,22.11192 1.40256,3.74215 4.5428,8.26741 7.37525,11.31608 -22.87451,11.22855 -35.30604,23.49374 -75.49568,10.40562 z"
       inkscape:connector-curvature="0" />
  </g>
</svg>
