<svg width="343" height="360" xmlns="http://www.w3.org/2000/svg">
 <metadata id="metadata51">image/svg+xml</metadata>

 <g>
  <title>background</title>
  <rect fill="none" id="canvas_background" height="362" width="345" y="-1" x="-1"/>
 </g>
 <g>
  <title>Layer 1</title>
  <g id="layer7">
   <path fill="#ffffff" stroke="#888686" stroke-width="2" stroke-miterlimit="4" d="m228.18487,2.39496c-4.2206,59.11505 30.62588,126.81703 112.72496,120.12705l0,-1.21009l-0.30252,115.26051l0,0l0.15126,-0.15126c-59.26631,-4.06934 -119.58852,39.75156 -112.89854,121.85064l1.21009,0l-115.2605,-0.30252l0,0l0.15126,0.7563c4.06933,-58.66126 -30.26516,-127.65926 -112.36424,-120.96928l0,1.21009l0.30252,-115.26051l0,0l-0.15126,0.15127c59.26631,4.06933 119.07653,-39.66564 112.38655,-121.76472l-1.21009,0l115.26051,0.30252l0,0l-0.30253,-0.30252" id="path6780"/>
  </g>
  <g display="inline" id="layer1">
   <circle fill="#888686" stroke-width="0.996623" r="118.108498" cy="179.69278" cx="170.71948" id="path344"/>
  </g>
  <g id="layer19">
   <path fill="#000000" stroke="#ffffff" stroke-width="2" stroke-miterlimit="4" d="m177.59601,162.36358c5.69372,12.49596 13.8455,22.14494 24.13718,29.52592c-13.12401,-1.69349 -25.31347,1.14541 -37.01032,6.37344c-4.73795,-10.96929 -11.89892,-20.76343 -23.06439,-28.61542l-0.67048,-0.78042c13.38153,1.45318 25.36738,-1.38068 36.60801,-6.50352zm-86.89377,-11.7063c3.82848,6.32542 10.86497,9.15015 17.4324,12.48674c8.43147,3.69974 13.73204,10.13273 18.63925,16.90911c3.70486,5.11608 6.00414,10.23217 8.71621,15.34827c-20.8425,-3.47949 -40.32257,1.38163 -56.85643,8.97483c-15.59333,5.80366 -26.2516,17.5563 -37.68078,28.74549c-12.42541,12.74241 -20.61929,30.87202 -27.35545,50.85742c-4.92004,17.76155 -4.68889,36.65137 1.47504,56.84063c2.44039,5.80613 5.84639,11.21768 12.06858,15.47834l0.13409,-0.26014c-6.8617,-18.75996 -8.08439,-38.79225 -2.5478,-58.53154c7.74866,-20.50096 16.45471,-40.40491 34.06022,-54.75952c16.65744,-14.60473 34.65659,-23.02773 54.1745,-24.45318c15.83092,-2.107 31.21582,1.93752 43.0446,10.40561c8.56593,6.74529 16.88519,13.75158 21.58934,24.58324c3.93114,9.25631 5.62459,19.40638 3.48649,31.08676c-0.83573,4.08309 -2.29371,8.31706 -4.55925,12.74686l0.53639,-0.13005c1.72887,-1.44473 3.82953,-2.5288 4.55924,-4.94267c4.6176,-6.63358 5.26965,-13.39723 7.64343,-20.0308c0.3771,-9.49512 0.87922,-18.86014 -1.47504,-28.35528c-1.33483,-6.36714 -3.85474,-12.27448 -6.97296,-17.94967l-4.15695,-5.72309c3.13172,-6.79101 10.51659,-15.25835 22.12966,-16.04485c7.66234,-2.49963 17.5248,-0.22963 24.13322,-0.34398c6.96586,0.57055 13.14263,1.90645 19.04154,3.51189l10.59354,3.12169l0,-0.13007c-2.58412,-4.03458 -7.0439,-6.84087 -11.93449,-9.36507l-9.78897,-4.81259c-6.17823,-4.17595 -10.8431,-9.57519 -14.88457,-15.47833c-3.71367,-5.18148 -7.5425,-10.37414 -7.77753,-15.2182c16.08872,1.71586 31.67571,0.025 46.66516,-5.72309c14.25178,-4.52487 25.10325,-11.84056 34.7307,-20.16086c10.00605,-8.71028 17.96308,-18.68592 24.94172,-29.26577c8.28513,-14.38149 14.79935,-29.06613 17.03012,-44.48396c0.9783,-9.66932 1.5805,-19.38418 -0.2682,-29.39585c-0.55087,-7.06088 -3.34871,-13.70618 -5.63199,-20.42101c-1.72394,-3.31384 -3.55194,-6.52673 -5.63201,-9.49512c-1.63743,-2.28949 -3.84983,-2.7256 -6.0343,-3.25174c6.78928,17.22674 9.55493,34.19329 5.63202,50.72733c-2.97052,17.14862 -9.77403,32.23171 -19.17564,45.91475c-10.22119,14.23532 -24.22902,24.79764 -39.42404,34.20842c-13.79249,6.78409 -28.295,9.57528 -43.44688,8.7147c-19.0322,-1.07877 -29.78716,-8.99688 -39.28993,-17.94966c-7.83566,-7.61227 -13.87425,-16.15421 -16.35962,-26.53433c-1.09554,-7.41161 -1.81012,-14.78218 0.26818,-21.85175c0.57309,-5.25133 2.60001,-9.56253 4.15696,-14.17764c-4.64371,5.82295 -8.64754,11.95719 -11.12991,19.5105c-3.56728,8.36785 -2.61647,16.86576 -2.41372,25.23361c1.04475,7.52693 2.84828,14.93116 6.03429,22.11192c1.40256,3.74215 4.5428,8.26741 7.37525,11.31608c-22.87451,11.22855 -35.30604,23.49374 -75.49568,10.40562z" id="path10474"/>
  </g>
 </g>
</svg>