<svg width="350" height="360" xmlns="http://www.w3.org/2000/svg">
 <metadata id="metadata51">image/svg+xml</metadata>

 <g>
  <title>background</title>
  <rect fill="none" id="canvas_background" height="362" width="352" y="-1" x="-1"/>
 </g>
 <g>
  <title>Layer 1</title>
  <g id="layer7">
   <path fill="#ffffff" stroke="#6d01a5" stroke-width="2" stroke-miterlimit="4" d="m232.18487,1.39496c-4.2206,59.11505 30.62588,126.81703 112.72496,120.12705l0,-1.21009l-0.30252,115.26051l0,0l0.15126,-0.15126c-59.26631,-4.06934 -119.58852,39.75156 -112.89854,121.85064l1.21009,0l-115.2605,-0.30252l0,0l0.15126,0.7563c4.06933,-58.66126 -30.26516,-127.65926 -112.36424,-120.96928l0,1.21009l0.30252,-115.26051l0,0l-0.15126,0.15127c59.26631,4.06933 119.07653,-39.66564 112.38655,-121.76472l-1.21009,0l115.26051,0.30252l0,0l-0.30253,-0.30252" id="path6780"/>
  </g>
  <g display="inline" id="layer1">
   <circle fill="#6d01a5" stroke-width="0.996623" r="118.108498" cy="178.69278" cx="174.71948" id="path344"/>
  </g>
  <g id="layer27">
   <path fill="#000000" stroke="#ffffff" stroke-width="1.967064" stroke-miterlimit="4" d="m174.9131,49.16134c12.90196,10.17234 23.30492,22.52653 33.69997,34.88763c-9.32118,-12.98761 -15.29654,-26.27687 -28.61058,-38.25029c16.97358,-10.68774 35.54574,-20.59507 56.94607,-18.77487c-5.20244,8.95729 -7.90825,18.18459 -8.11551,27.88208c-0.81954,10.00039 1.71842,17.35854 6.32735,22.13753c-0.79685,-9.31676 0.67025,-18.37728 3.16368,-27.32164c3.08809,-4.45071 6.10693,-9.04248 9.90366,-12.04954c6.57243,-4.57191 13.15137,-9.08415 20.08244,-10.3682c6.53458,-0.51938 12.95071,-0.31478 19.11958,1.40111l0.13754,0.1401c5.0261,3.86325 9.41782,8.02021 10.45387,13.73087c1.27301,5.31392 1.91418,10.70828 0.2751,16.39298c-1.11299,6.91626 -4.60137,10.20313 -7.0151,15.13199c-3.3484,4.18147 -7.39925,7.20389 -11.27917,10.50832c-5.53174,3.61395 -11.34215,6.51826 -17.60652,8.26655c-7.40892,2.83222 -15.20791,4.07515 -22.971,5.46431c-10.74082,1.27531 -19.82272,3.81795 -29.16079,6.16489c-6.82309,1.26539 -11.7297,3.50684 -17.19387,5.46433c-6.81009,2.48629 -12.07789,5.75809 -17.46897,8.96709c-6.38181,-4.04563 -13.24378,-7.11312 -20.35753,-9.66765c-7.09619,-2.83463 -14.40787,-5.01078 -21.87059,-6.72532c-7.61185,-1.82356 -15.17134,-3.48713 -22.4208,-4.20334c-8.00323,-1.70228 -16.83607,-2.55952 -23.52121,-5.60442c-8.54604,-3.29515 -16.68895,-7.05958 -22.69591,-13.31054c-5.34421,-4.81755 -9.68783,-10.2721 -12.10449,-16.95344c-2.19475,-6.83617 -2.29686,-13.24603 -0.82529,-19.3353c2.15971,-5.12893 4.50777,-9.92213 8.1155,-12.46987c5.36449,-3.45496 10.72897,-3.60803 16.09346,-3.783c5.1251,0.19172 9.95632,1.88017 14.71794,3.92311c5.81868,2.55606 10.6865,5.75782 14.30531,9.80776c4.96138,5.05221 7.10084,10.74318 8.80324,16.53309c0.79628,3.48798 1.03274,6.69086 1.10042,9.80778c0.78497,3.69145 0.0885,6.87991 -0.13755,10.22809c2.65783,-2.00977 4.85684,-4.4869 6.05224,-7.98632c1.31254,-3.96981 1.66725,-7.6594 1.51305,-11.62922c0.20422,-4.71706 -0.57121,-9.43413 -2.20081,-14.15121l-3.98898,-9.66764c-1.0859,-2.83415 -1.79998,-5.28956 -1.78815,-7.00554c9.46235,0.22768 18.3637,2.16969 27.09752,4.62365c5.719,1.64715 10.67199,4.07457 15.68081,6.44511c4.72258,2.247 9.44516,5.63439 14.16775,8.54677l-0.13755,-0.42033c-3.48464,3.49042 -6.96926,7.40832 -10.45389,10.22808c-6.02853,6.45746 -7.86825,10.01291 -11.55426,15.55233c-3.21172,3.4354 -6.05915,9.51573 -6.74,12.60999c9.64155,-13.04381 19.24413,-26.13125 32.46202,-35.16786zm49.21424,70.33435c8.36192,10.4946 5.1772,21.4202 -2.1398,31.60441c-12.01323,-7.33832 -20.2667,-16.3582 -30.44336,-23.38132c10.7865,-3.27254 21.54636,-6.73516 32.58316,-8.22309zm-66.0417,8.42123l0,0c-10.38698,7.70552 -19.60486,15.72272 -29.27623,22.58874c-8.47434,-9.892 -9.60797,-20.4016 -3.20968,-30.51461l0,0l0.97263,-0.19814c11.46983,1.23294 22.11636,3.72383 31.51328,8.12401zm17.21558,6.83607c14.14403,5.99754 28.65648,12.32384 40.26696,22.19244c-11.34189,10.8376 -26.17768,18.21537 -39.97518,26.55168c-14.64775,-7.57222 -28.05053,-16.27168 -40.36421,-25.95724l-0.58358,-1.18888c12.36771,-8.85805 26.22284,-15.63283 40.65601,-21.598zm-124.39962,205.87451l3.01517,-13.47397c1.94348,-8.98449 4.36783,-17.47912 8.75368,-23.97578c3.81219,-7.43965 8.05411,-14.58752 12.64421,-21.49892c4.55693,-5.97965 8.71914,-12.20055 14.49222,-17.43692c6.97096,-5.81142 13.61403,-12.29084 21.30064,-16.64432c5.68687,-4.10847 11.39101,-8.23453 16.82653,-12.08697c5.67243,-4.22841 11.73769,-8.05666 18.18821,-11.49251l18.48,-9.90733l10.69896,-6.04347c5.12526,3.17034 10.13833,6.34069 15.75664,9.51104c8.29844,4.83876 16.0298,9.96636 23.82948,15.05915l21.49517,15.05917c6.0817,4.0019 11.46002,7.86643 16.63199,11.69065l8.55916,7.4305c4.55518,4.13219 8.23902,8.48626 11.76885,12.87955c3.76702,4.56418 6.71121,9.68714 9.72632,14.76193c4.20617,7.28408 8.3311,14.58884 10.50442,22.39059c1.94522,5.16008 3.46828,10.42767 4.37685,15.85174c1.11388,3.81906 1.95796,7.91293 2.82063,11.98789l1.55621,10.79899l2.04252,-7.82679c-0.0852,-3.54594 -0.0119,-7.25316 -0.58357,-10.30365c-0.63133,-4.36794 -1.03308,-8.85279 -2.1398,-12.97861l-3.20967,-12.58232c-2.0906,-5.43308 -4.06825,-10.98125 -6.90569,-15.65359l0.19453,0.39629c-2.89983,-5.60656 -5.81378,-11.27073 -8.4619,-15.85174c-2.70241,-4.13974 -5.5648,-8.44241 -7.78106,-12.08695c-2.85306,-4.04184 -5.70611,-8.24357 -8.55915,-11.78974c-3.08001,-3.90864 -6.16001,-7.67525 -9.24001,-10.79899l-16.63201,-16.14897l-12.74147,-10.20456l-13.03327,-9.51105l-14.68674,-10.0064c-1.63721,-1.10638 -3.36945,-2.11595 -4.7659,-3.46758l0,0l11.8661,-5.84533c3.69701,-2.01346 7.40945,-4.01122 10.60169,-6.53884l7.39201,-5.2509l6.90569,-5.05273l4.86316,7.13328l4.96042,8.91661l-2.1398,-7.62865l-3.11242,-7.52958l-1.94526,-4.26016c4.31661,-2.274 7.23871,-5.96845 10.60169,-9.21382c3.4125,-4.74723 5.53432,-9.7574 7.68379,-14.76194c1.58078,-7.32316 2.51663,-14.70603 1.26442,-22.29152l-1.848,-8.22309c0.11691,-0.91268 0.3572,-1.74995 1.75074,-1.88238c4.80213,-0.14572 9.36064,-1.53216 13.90863,-2.97221c6.05092,-2.29072 11.80852,-4.88024 16.82654,-8.22309c4.55779,-3.29765 9.61462,-6.46821 13.22779,-10.00641l6.61389,-6.34071c3.60179,-3.64764 6.88963,-7.45519 8.94822,-11.8888c2.4641,-4.92065 4.94737,-9.84129 5.64126,-14.76194c0.89565,-5.50203 0.69198,-11.11463 -1.26442,-17.1397c-1.55487,-3.8494 -3.09522,-7.72098 -5.15495,-10.799c-2.14506,-3.48984 -4.50399,-6.544 -6.90567,-9.51105c-4.20705,-4.63874 -9.57257,-8.83498 -15.85391,-12.68138c-5.55615,-3.08265 -11.99675,-4.58872 -18.57727,-5.84534c-5.66209,-0.81866 -11.48911,-0.79722 -17.41011,-0.29723c-8.344,1.02579 -16.06183,3.11456 -23.63495,5.44905c-6.17146,2.2068 -11.98212,4.59737 -17.11833,7.33143c-7.80507,4.0932 -15.58086,8.20877 -22.37052,13.07769c-3.96322,2.67498 -7.32697,5.34996 -10.79622,8.02494l-5.64127,4.65645c-3.57394,-3.16259 -7.25487,-6.21618 -11.08799,-9.11475c-3.79961,-2.95931 -7.80968,-5.48983 -11.86612,-7.92587c-4.85429,-3.15537 -9.96916,-5.77992 -15.0758,-8.42124c-5.21307,-2.72853 -10.57613,-4.99874 -16.04842,-6.93513c-5.78372,-2.16061 -11.65932,-3.94685 -17.70191,-5.05275c-6.12756,-1.46213 -12.25515,-1.77162 -18.38273,-1.38703c-5.94238,0.13662 -11.49703,1.45809 -16.9238,3.17036c-5.8349,2.01539 -11.12061,4.5902 -15.65937,7.92586c-5.95681,4.74151 -11.12896,9.88751 -14.58948,16.14897c-3.09846,4.81217 -5.16496,10.14992 -6.71116,15.75267c-1.71281,5.56406 -0.5859,10.83886 0.19454,16.14896c0.95505,4.331 3.14323,8.63099 5.64125,12.68139c4.0365,8.05054 10.42232,13.44215 16.72927,18.92302l11.47706,8.61939c4.57405,3.20064 9.85664,5.67954 15.46485,7.8268l12.15789,3.36848l4.47412,0.99074c0.8805,0.77521 1.25485,1.63634 0.58357,2.67499c-2.54151,6.87326 -2.39279,13.49741 -2.13978,20.11189l1.36168,8.81754c1.08429,3.52811 2.69074,6.25844 4.27957,9.01567c2.07771,3.95169 4.48965,6.54159 6.80843,9.51105l5.83578,5.84534c-1.56632,3.54388 -2.63689,7.23622 -4.1823,11.29437c-1.26756,1.83858 -1.60358,4.10755 -2.23706,7.13328l0.19451,3.36849c0,0 2.72338,-5.9444 3.11243,-6.73699c0.38906,-0.79258 3.89053,-7.92588 3.89053,-7.92588l3.11242,-4.16107c2.60414,2.16044 5.14364,4.33733 8.75369,6.24163c4.09601,3.20292 8.28922,6.10881 12.64421,8.5203c0,0.21709 10.50444,6.0924 10.69895,6.04348c0.50851,-0.12789 4.66864,2.37777 4.66864,2.37777c-7.7864,4.33716 -14.89062,9.21887 -21.78695,14.26655c-5.51997,4.02898 -11.17519,8.05798 -15.95117,12.08697c-6.39511,5.31693 -12.17566,10.63387 -17.79916,15.9508l-15.95116,17.93229c-5.33721,6.4853 -9.68634,13.97706 -14.2977,21.20171c-0.2884,-0.28575 -10.35539,19.09848 -10.60168,19.51746c-0.27256,0.46367 -8.13259,19.50224 -7.68379,19.61652c-1.09099,4.05207 -2.26419,7.93667 -3.11242,12.48326l-0.7781,8.12401l-0.0973,9.01569l1.36169,7.52958c1.21705,-3.96304 2.38962,-11.40228 3.01516,-14.26658l0.00002,0z" id="path10630"/>
  </g>
 </g>
</svg>