<svg width="350" height="360" xmlns="http://www.w3.org/2000/svg">
 <metadata id="metadata51">image/svg+xml</metadata>

 <g>
  <title>background</title>
  <rect fill="none" id="canvas_background" height="362" width="352" y="-1" x="-1"/>
 </g>
 <g>
  <title>Layer 1</title>
  <g id="layer7">
   <path fill="#ffffff" stroke="#ceaf02" stroke-width="2" stroke-miterlimit="4" d="m231.18487,3.39496c-4.2206,59.11505 30.62588,126.81703 112.72496,120.12705l0,-1.21009l-0.30252,115.26051l0,0l0.15126,-0.15126c-59.26631,-4.06934 -119.58852,39.75156 -112.89854,121.85064l1.21009,0l-115.2605,-0.30252l0,0l0.15126,0.7563c4.06933,-58.66126 -30.26516,-127.65926 -112.36424,-120.96928l0,1.21009l0.30252,-115.26051l0,0l-0.15126,0.15127c59.26631,4.06933 119.07653,-39.66564 112.38655,-121.76472l-1.21009,0l115.26051,0.30252l0,0l-0.30253,-0.30252" id="path6780"/>
  </g>
  <g display="inline" id="layer1">
   <circle fill="#ceaf02" stroke-width="0.996623" r="118.108498" cy="180.69278" cx="173.71948" id="path344"/>
  </g>
  <g id="layer29">
   <path fill="#000000" stroke="#ffffff" stroke-width="1.534153" stroke-miterlimit="4" id="path10855" d="m72.30982,63.95808c6.38537,-2.52173 13.2846,-2.16269 20.02023,-2.72086l27.907,2.94761c12.64312,1.93182 23.5861,5.07595 33.97371,8.61608c9.6116,3.35666 18.63042,7.37793 27.09809,12.01718c7.12492,3.47947 14.24985,5.61261 21.37478,7.85132c9.60832,1.96366 18.94105,3.00033 28.16989,3.68757c10.82723,-0.27286 21.60321,-0.70773 32.03073,-2.24461c6.67284,-2.03108 13.87946,-3.46369 19.87621,-6.25283c10.18469,-3.20005 19.24376,-8.50356 28.31289,-13.78828l14.44242,-10.90235l9.29464,-9.13875c-6.7684,1.93573 -13.5368,2.50957 -20.3052,3.20657c-7.92034,0.66814 -15.62594,0.61402 -23.16508,0c-8.94825,-0.83737 -17.55322,-2.6369 -25.73898,-5.61151c-7.61025,-2.2627 -15.18779,-4.56203 -21.30616,-8.49741l-17.44532,-8.49746c-5.64694,-2.13472 -10.87823,-3.33735 -16.15836,-4.64953c-7.34037,-1.7022 -14.68075,-2.57319 -22.02113,-2.56526c-5.067,0.35845 -9.9011,0.73467 -14.58542,1.1223c-4.14374,1.17575 -6.09923,2.35149 -8.86565,3.52723c5.75101,0.56945 11.1419,0.73513 17.5883,2.08428c6.0177,0.29389 11.61812,1.52352 16.87334,3.52723c6.13838,1.79431 11.77365,4.03989 16.01537,7.53546c5.67553,4.19793 10.86524,8.77715 13.87044,15.07091c3.02334,4.30052 4.74691,8.70515 4.00384,13.3073c-2.03194,4.04513 -4.90643,4.62641 -7.72169,5.45118c-7.24565,-0.28564 -13.84195,-1.82317 -20.01921,-4.16856c-7.45835,-2.2192 -14.76982,-4.60311 -21.16316,-8.01643c-5.90815,-2.28539 -11.73373,-4.66338 -17.10876,-7.54654c-5.75758,-2.62313 -11.36176,-5.16027 -16.58241,-7.48239c-6.56695,-2.81027 -12.91112,-4.62135 -19.21134,-6.23533c-5.05812,-1.28767 -9.97387,-2.41571 -14.76238,-3.40109l-0.20223,-0.11336c-6.56716,-1.42737 -12.43721,-1.68231 -18.50354,-2.2674c-5.69599,-0.55126 -11.39199,-0.35681 -17.08798,-0.34011c-9.19052,-0.24654 -17.93551,0.25625 -26.59253,0.90696c-6.95973,0.90696 -10.42287,1.81391 -15.47018,2.72088l-18.60465,4.53478l-11.22348,3.74119l16.58241,8.04924l17.49242,9.86318l16.3802,10.31662l16.98686,11.45033l17.59354,12.35729l18.20021,14.05784l23.55917,20.40653l13.14458,12.35728c4.54553,4.34584 8.49343,8.69169 12.23458,13.03751l0.40446,0.45348l8.79677,9.52306l5.56117,6.80217c0.351,0.45348 0.93787,0.90696 0,1.36043l-7.07786,8.72947l-9.70678,10.88348l-10.31345,10.08989l-12.33569,11.67707l-10.92012,9.97654l-13.24571,10.54337l-17.18909,13.37761l-14.15572,9.97652l-14.86351,10.20328l-21.33468,13.03751l-11.72903,6.6888l-9.60566,5.21499l-6.97675,3.74121l-4.55005,2.15402l10.61678,3.28772c5.46508,1.71737 10.87898,3.26266 16.07686,4.0813c7.47919,1.49978 13.82889,2.38175 20.22245,3.28773c7.79192,0.32987 15.5489,0.64664 22.54805,0.68022c7.27379,0.23464 13.95552,0.0267 20.42467,-0.34012c0.42021,0.15706 21.60877,-3.50228 21.94135,-3.40108c1.01725,0.30949 24.73121,-6.53155 24.57029,-6.80219l18.80688,-7.93586c5.49377,-2.86835 10.98753,-5.44541 16.4813,-7.70913l16.27907,-6.57545l19.31245,-5.66848c3.58455,-0.89818 7.09823,-1.39907 10.41457,-0.79358c2.67943,0.86162 4.10258,2.28667 5.46005,3.74119c1.85378,2.53192 0.96713,5.06385 0.8089,7.59577c-0.46854,2.91539 -1.66532,4.606 -2.62892,6.6888l-6.16784,7.93587c-2.188,3.10033 -6.05567,5.259 -9.20121,7.82252c-4.24672,3.28526 -8.49344,5.11195 -12.74014,7.25564l-9.90902,2.60751l-12.94236,1.92728l-8.08898,0.45348l-6.77452,0.56684l7.28008,3.28773l8.2912,1.1337l11.02123,0.56684l8.89788,-0.79358l10.01012,-1.47381l11.12235,-3.40109l12.23459,-5.32838c4.91528,-2.51954 9.80889,-4.9905 14.45906,-6.91554c4.12045,-2.3097 8.58702,-4.03728 13.24571,-5.44174l11.32457,-3.17435l11.12235,-2.26739c3.33901,-0.64372 6.19012,-1.01392 8.99899,-1.36044c4.67433,-0.72034 9.02908,-0.36575 13.44794,-0.22675c4.70389,-0.24807 8.74551,0.24644 12.94237,0.56686c3.43689,0.24719 6.89517,0.4584 9.80788,1.58718l5.56118,2.38076l-0.10111,0c-2.27517,-3.04203 -4.52162,-6.09479 -7.58342,-8.84283l-10.61678,-8.38936l-12.74015,-7.82249l-13.9535,-6.91557l-15.77351,-5.32835l-15.87463,-3.4011l-13.85238,-2.15402c-5.22898,-0.26997 -10.20177,-0.25268 -15.16684,-0.22673c-3.87437,0.45348 -7.71618,0.90694 -11.32457,1.36043c-4.84234,0.51134 -9.14367,1.26533 -12.63904,2.38075c-7.88864,1.50949 -14.81925,4.09314 -21.94136,6.46207c-4.74494,2.41444 -8.80083,4.4426 -13.04349,6.57544c-3.80856,1.79798 -7.61713,3.55724 -11.42569,4.76153c-5.29221,2.1185 -10.54547,4.10599 -15.57128,5.32838c-5.19044,1.79188 -10.38087,2.96679 -15.5713,3.85456c-5.05985,0.79358 -9.86553,1.58718 -14.66128,2.38076c-4.84151,0.28902 -9.85737,0.77347 -14.45905,0.79358l-11.83014,0.56686l-8.79677,-0.90695l-5.25784,-1.02034c0.0986,-0.75719 0.47435,-1.35904 1.11225,-1.81391l5.46005,-3.85456l13.44793,-10.20327l11.62791,-9.86315l12.03237,-10.65676l8.39232,-8.04924l4.65116,-4.64815l8.39233,-8.27598l8.49343,-9.63642l7.28008,-7.93587l5.96563,-7.4824l4.85338,-6.00859l5.25783,-7.25566l4.75229,-7.02891l2.83114,-3.62783l1.51669,-1.70054l2.12336,3.17435c1.03155,1.87462 2.34785,4.06849 3.64004,6.23532l2.83113,4.53479l1.82003,4.0813l0.50556,1.81391l0.30334,-4.19467c-0.91002,-2.23298 -1.82002,-5.03715 -2.73003,-6.46207l-2.4267,-6.3487c-0.85956,-1.93679 -1.95989,-4.00856 -2.32559,-5.66848l-0.80889,-3.06098l2.27143,-4.355c0.54647,-2.07844 1.80677,-3.99655 1.87417,-6.075c0.55952,-2.20316 1.17423,-4.43728 1.21335,-6.3487l0.10111,-5.32837l-1.01113,2.15402c-0.34976,1.51159 -0.61774,3.02319 -1.51667,4.53479c-0.50934,1.4996 -1.29206,2.94706 -2.52781,4.30804c-0.24316,1.28485 -2.20504,4.04352 -3.2356,5.32837c-7.4436,-8.99398 -13.34722,-17.98797 -20.02023,-26.98197l-23.86249,-27.88892l-27.907,-26.52851l-23.66026,-19.95305l-13.75127,-9.97653"/>
  </g>
 </g>
</svg>