<?xml version="1.0" encoding="UTF-8" standalone="no"?>
<!-- Created with Inkscape (http://www.inkscape.org/) -->

<svg
   xmlns:dc="http://purl.org/dc/elements/1.1/"
   xmlns:cc="http://creativecommons.org/ns#"
   xmlns:rdf="http://www.w3.org/1999/02/22-rdf-syntax-ns#"
   xmlns:svg="http://www.w3.org/2000/svg"
   xmlns="http://www.w3.org/2000/svg"
   xmlns:sodipodi="http://sodipodi.sourceforge.net/DTD/sodipodi-0.dtd"
   xmlns:inkscape="http://www.inkscape.org/namespaces/inkscape"
   version="1.1"
   id="svg45"
   width="864"
   height="864"
   viewBox="0 0 864 864"
   sodipodi:docname="OPS DIV icon3.svg"
   inkscape:version="0.92.2 5c3e80d, 2017-08-06">
  <metadata
     id="metadata51">
    <rdf:RDF>
      <cc:Work
         rdf:about="">
        <dc:format>image/svg+xml</dc:format>
        <dc:type
           rdf:resource="http://purl.org/dc/dcmitype/StillImage" />
        <dc:title></dc:title>
      </cc:Work>
    </rdf:RDF>
  </metadata>
  <defs
     id="defs49" />
  <sodipodi:namedview
     pagecolor="#ffffff"
     bordercolor="#666666"
     borderopacity="1"
     objecttolerance="10"
     gridtolerance="10"
     guidetolerance="10"
     inkscape:pageopacity="0"
     inkscape:pageshadow="2"
     inkscape:window-width="1662"
     inkscape:window-height="908"
     id="namedview47"
     showgrid="false"
     showguides="true"
     inkscape:guide-bbox="true"
     inkscape:zoom="1.6527778"
     inkscape:cx="458.00655"
     inkscape:cy="455.84759"
     inkscape:window-x="0"
     inkscape:window-y="0"
     inkscape:window-maximized="0"
     inkscape:current-layer="layer29"
     inkscape:snap-page="true"
     inkscape:snap-center="true" />
  <g
     inkscape:groupmode="layer"
     id="layer7"
     inkscape:label="merge">
    <path
       id="path6780"
       style="display:inline;fill:#ffffff;fill-opacity:1;stroke:#ceaf02;stroke-width:2;stroke-linecap:butt;stroke-linejoin:miter;stroke-miterlimit:4;stroke-dasharray:none;stroke-opacity:1"
       d="m 502.18487,251.39496 c -4.2206,59.11505 30.62588,126.81703 112.72496,120.12705 v -1.21009 l -0.30252,115.26051 v 0 l 0.15126,-0.15126 c -59.26631,-4.06934 -119.58852,39.75156 -112.89854,121.85064 h 1.21009 l -115.2605,-0.30252 v 0 l 0.15126,0.7563 C 392.03021,549.06433 357.69572,480.06633 275.59664,486.75631 v 1.21009 l 0.30252,-115.26051 v 0 l -0.15126,0.15127 c 59.26631,4.06933 119.07653,-39.66564 112.38655,-121.76472 h -1.21009 l 115.26051,0.30252 v 0 l -0.30253,-0.30252"
       inkscape:connector-curvature="0"
       sodipodi:nodetypes="ccccccccccccccccccccc" />
  </g>
  <g
     inkscape:groupmode="layer"
     id="layer1"
     inkscape:label="circle"
     style="display:inline">
    <circle
       id="path344"
       cx="444.71948"
       cy="428.69278"
       r="118.1085"
       style="fill:#ceaf02;fill-opacity:1;stroke-width:0.99662274" />
  </g>
  <g
     inkscape:groupmode="layer"
     id="layer29"
     inkscape:label="shape">
    <path
       style="fill:#000000;fill-opacity:1;stroke:#ffffff;stroke-width:1.53415322;stroke-linecap:butt;stroke-linejoin:miter;stroke-miterlimit:4;stroke-dasharray:none;stroke-opacity:1"
       d="m 343.30982,311.95808 c 6.38537,-2.52173 13.2846,-2.16269 20.02023,-2.72086 l 27.907,2.94761 c 12.64312,1.93182 23.5861,5.07595 33.97371,8.61608 9.6116,3.35666 18.63042,7.37793 27.09809,12.01718 7.12492,3.47947 14.24985,5.61261 21.37478,7.85132 9.60832,1.96366 18.94105,3.00033 28.16989,3.68757 10.82723,-0.27286 21.60321,-0.70773 32.03073,-2.24461 6.67284,-2.03108 13.87946,-3.46369 19.87621,-6.25283 10.18469,-3.20005 19.24376,-8.50356 28.31289,-13.78828 l 14.44242,-10.90235 9.29464,-9.13875 c -6.7684,1.93573 -13.5368,2.50957 -20.3052,3.20657 -7.92034,0.66814 -15.62594,0.61402 -23.16508,0 -8.94825,-0.83737 -17.55322,-2.6369 -25.73898,-5.61151 -7.61025,-2.2627 -15.18779,-4.56203 -21.30616,-8.49741 l -17.44532,-8.49746 c -5.64694,-2.13472 -10.87823,-3.33735 -16.15836,-4.64953 -7.34037,-1.7022 -14.68075,-2.57319 -22.02113,-2.56526 -5.067,0.35845 -9.9011,0.73467 -14.58542,1.1223 -4.14374,1.17575 -6.09923,2.35149 -8.86565,3.52723 5.75101,0.56945 11.1419,0.73513 17.5883,2.08428 6.0177,0.29389 11.61812,1.52352 16.87334,3.52723 6.13838,1.79431 11.77365,4.03989 16.01537,7.53546 5.67553,4.19793 10.86524,8.77715 13.87044,15.07091 3.02334,4.30052 4.74691,8.70515 4.00384,13.3073 -2.03194,4.04513 -4.90643,4.62641 -7.72169,5.45118 -7.24565,-0.28564 -13.84195,-1.82317 -20.01921,-4.16856 -7.45835,-2.2192 -14.76982,-4.60311 -21.16316,-8.01643 -5.90815,-2.28539 -11.73373,-4.66338 -17.10876,-7.54654 -5.75758,-2.62313 -11.36176,-5.16027 -16.58241,-7.48239 -6.56695,-2.81027 -12.91112,-4.62135 -19.21134,-6.23533 -5.05812,-1.28767 -9.97387,-2.41571 -14.76238,-3.40109 l -0.20223,-0.11336 c -6.56716,-1.42737 -12.43721,-1.68231 -18.50354,-2.2674 -5.69599,-0.55126 -11.39199,-0.35681 -17.08798,-0.34011 -9.19052,-0.24654 -17.93551,0.25625 -26.59253,0.90696 -6.95973,0.90696 -10.42287,1.81391 -15.47018,2.72088 l -18.60465,4.53478 -11.22348,3.74119 16.58241,8.04924 17.49242,9.86318 16.3802,10.31662 16.98686,11.45033 17.59354,12.35729 18.20021,14.05784 23.55917,20.40653 13.14458,12.35728 c 4.54553,4.34584 8.49343,8.69169 12.23458,13.03751 l 0.40446,0.45348 8.79677,9.52306 5.56117,6.80217 c 0.351,0.45348 0.93787,0.90696 0,1.36043 l -7.07786,8.72947 -9.70678,10.88348 -10.31345,10.08989 -12.33569,11.67707 -10.92012,9.97654 -13.24571,10.54337 -17.18909,13.37761 -14.15572,9.97652 -14.86351,10.20328 -21.33468,13.03751 -11.72903,6.6888 -9.60566,5.21499 -6.97675,3.74121 -4.55005,2.15402 10.61678,3.28772 c 5.46508,1.71737 10.87898,3.26266 16.07686,4.0813 7.47919,1.49978 13.82889,2.38175 20.22245,3.28773 7.79192,0.32987 15.5489,0.64664 22.54805,0.68022 7.27379,0.23464 13.95552,0.0267 20.42467,-0.34012 0.42021,0.15706 21.60877,-3.50228 21.94135,-3.40108 1.01725,0.30949 24.73121,-6.53155 24.57029,-6.80219 l 18.80688,-7.93586 c 5.49377,-2.86835 10.98753,-5.44541 16.4813,-7.70913 l 16.27907,-6.57545 19.31245,-5.66848 c 3.58455,-0.89818 7.09823,-1.39907 10.41457,-0.79358 2.67943,0.86162 4.10258,2.28667 5.46005,3.74119 1.85378,2.53192 0.96713,5.06385 0.8089,7.59577 -0.46854,2.91539 -1.66532,4.606 -2.62892,6.6888 l -6.16784,7.93587 c -2.188,3.10033 -6.05567,5.259 -9.20121,7.82252 -4.24672,3.28526 -8.49344,5.11195 -12.74014,7.25564 l -9.90902,2.60751 -12.94236,1.92728 -8.08898,0.45348 -6.77452,0.56684 7.28008,3.28773 8.2912,1.1337 11.02123,0.56684 8.89788,-0.79358 10.01012,-1.47381 11.12235,-3.40109 12.23459,-5.32838 c 4.91528,-2.51954 9.80889,-4.9905 14.45906,-6.91554 4.12045,-2.3097 8.58702,-4.03728 13.24571,-5.44174 l 11.32457,-3.17435 11.12235,-2.26739 c 3.33901,-0.64372 6.19012,-1.01392 8.99899,-1.36044 4.67433,-0.72034 9.02908,-0.36575 13.44794,-0.22675 4.70389,-0.24807 8.74551,0.24644 12.94237,0.56686 3.43689,0.24719 6.89517,0.4584 9.80788,1.58718 l 5.56118,2.38076 h -0.10111 c -2.27517,-3.04203 -4.52162,-6.09479 -7.58342,-8.84283 l -10.61678,-8.38936 -12.74015,-7.82249 -13.9535,-6.91557 -15.77351,-5.32835 -15.87463,-3.4011 -13.85238,-2.15402 c -5.22898,-0.26997 -10.20177,-0.25268 -15.16684,-0.22673 -3.87437,0.45348 -7.71618,0.90694 -11.32457,1.36043 -4.84234,0.51134 -9.14367,1.26533 -12.63904,2.38075 -7.88864,1.50949 -14.81925,4.09314 -21.94136,6.46207 -4.74494,2.41444 -8.80083,4.4426 -13.04349,6.57544 -3.80856,1.79798 -7.61713,3.55724 -11.42569,4.76153 -5.29221,2.1185 -10.54547,4.10599 -15.57128,5.32838 -5.19044,1.79188 -10.38087,2.96679 -15.5713,3.85456 -5.05985,0.79358 -9.86553,1.58718 -14.66128,2.38076 -4.84151,0.28902 -9.85737,0.77347 -14.45905,0.79358 l -11.83014,0.56686 -8.79677,-0.90695 -5.25784,-1.02034 c 0.0986,-0.75719 0.47435,-1.35904 1.11225,-1.81391 l 5.46005,-3.85456 13.44793,-10.20327 11.62791,-9.86315 12.03237,-10.65676 8.39232,-8.04924 4.65116,-4.64815 8.39233,-8.27598 8.49343,-9.63642 7.28008,-7.93587 5.96563,-7.4824 4.85338,-6.00859 5.25783,-7.25566 4.75229,-7.02891 2.83114,-3.62783 1.51669,-1.70054 2.12336,3.17435 c 1.03155,1.87462 2.34785,4.06849 3.64004,6.23532 l 2.83113,4.53479 1.82003,4.0813 0.50556,1.81391 0.30334,-4.19467 c -0.91002,-2.23298 -1.82002,-5.03715 -2.73003,-6.46207 l -2.4267,-6.3487 c -0.85956,-1.93679 -1.95989,-4.00856 -2.32559,-5.66848 l -0.80889,-3.06098 2.27143,-4.355 c 0.54647,-2.07844 1.80677,-3.99655 1.87417,-6.075 0.55952,-2.20316 1.17423,-4.43728 1.21335,-6.3487 l 0.10111,-5.32837 -1.01113,2.15402 c -0.34976,1.51159 -0.61774,3.02319 -1.51667,4.53479 -0.50934,1.4996 -1.29206,2.94706 -2.52781,4.30804 -0.24316,1.28485 -2.20504,4.04352 -3.2356,5.32837 -7.4436,-8.99398 -13.34722,-17.98797 -20.02023,-26.98197 l -23.86249,-27.88892 -27.907,-26.52851 -23.66026,-19.95305 -13.75127,-9.97653"
       id="path10855"
       inkscape:connector-curvature="0"
       sodipodi:nodetypes="ccccccccccccccccccccccccccccccccccccccccccccccccccccccccccccccccccccccccscccccccccccccccccccccccccccccccccccccccccccccccccccccccccccccccccccccccccccccccccccccccccccc" />
  </g>
</svg>
