<?xml version="1.0" encoding="UTF-8" standalone="no"?>
<!-- Created with Inkscape (http://www.inkscape.org/) -->

<svg
   xmlns:dc="http://purl.org/dc/elements/1.1/"
   xmlns:cc="http://creativecommons.org/ns#"
   xmlns:rdf="http://www.w3.org/1999/02/22-rdf-syntax-ns#"
   xmlns:svg="http://www.w3.org/2000/svg"
   xmlns="http://www.w3.org/2000/svg"
   xmlns:sodipodi="http://sodipodi.sourceforge.net/DTD/sodipodi-0.dtd"
   xmlns:inkscape="http://www.inkscape.org/namespaces/inkscape"
   version="1.1"
   id="svg45"
   width="864"
   height="864"
   viewBox="0 0 864 864"
   sodipodi:docname="SCI DIV icon3.svg"
   inkscape:version="0.92.2 5c3e80d, 2017-08-06">
  <metadata
     id="metadata51">
    <rdf:RDF>
      <cc:Work
         rdf:about="">
        <dc:format>image/svg+xml</dc:format>
        <dc:type
           rdf:resource="http://purl.org/dc/dcmitype/StillImage" />
        <dc:title></dc:title>
      </cc:Work>
    </rdf:RDF>
  </metadata>
  <defs
     id="defs49" />
  <sodipodi:namedview
     pagecolor="#ffffff"
     bordercolor="#666666"
     borderopacity="1"
     objecttolerance="10"
     gridtolerance="10"
     guidetolerance="10"
     inkscape:pageopacity="0"
     inkscape:pageshadow="2"
     inkscape:window-width="1662"
     inkscape:window-height="908"
     id="namedview47"
     showgrid="false"
     showguides="true"
     inkscape:guide-bbox="true"
     inkscape:zoom="1.6527778"
     inkscape:cx="458.00655"
     inkscape:cy="455.84759"
     inkscape:window-x="0"
     inkscape:window-y="0"
     inkscape:window-maximized="0"
     inkscape:current-layer="layer31"
     inkscape:snap-page="true"
     inkscape:snap-center="true" />
  <g
     inkscape:groupmode="layer"
     id="layer7"
     inkscape:label="merge">
    <path
       id="path6780"
       style="display:inline;fill:#ffffff;fill-opacity:1;stroke:#0660e7;stroke-width:2;stroke-linecap:butt;stroke-linejoin:miter;stroke-miterlimit:4;stroke-dasharray:none;stroke-opacity:1"
       d="m 502.18487,251.39496 c -4.2206,59.11505 30.62588,126.81703 112.72496,120.12705 v -1.21009 l -0.30252,115.26051 v 0 l 0.15126,-0.15126 c -59.26631,-4.06934 -119.58852,39.75156 -112.89854,121.85064 h 1.21009 l -115.2605,-0.30252 v 0 l 0.15126,0.7563 C 392.03021,549.06433 357.69572,480.06633 275.59664,486.75631 v 1.21009 l 0.30252,-115.26051 v 0 l -0.15126,0.15127 c 59.26631,4.06933 119.07653,-39.66564 112.38655,-121.76472 h -1.21009 l 115.26051,0.30252 v 0 l -0.30253,-0.30252"
       inkscape:connector-curvature="0"
       sodipodi:nodetypes="ccccccccccccccccccccc" />
  </g>
  <g
     inkscape:groupmode="layer"
     id="layer1"
     inkscape:label="circle"
     style="display:inline">
    <circle
       id="path344"
       cx="444.71948"
       cy="428.69278"
       r="118.1085"
       style="fill:#0660e7;fill-opacity:1;stroke-width:0.99662274" />
  </g>
  <g
     inkscape:groupmode="layer"
     id="layer31"
     inkscape:label="shape">
    <path
       style="fill:#000000;fill-opacity:1;stroke:#ffffff;stroke-width:1.16452348;stroke-linecap:butt;stroke-linejoin:miter;stroke-miterlimit:4;stroke-dasharray:none;stroke-opacity:1"
       d="m 471.38737,455.13671 c 2.4189,4.407 3.35965,9.17163 4.59797,13.86426 1.70726,6.13041 0.52935,11.94672 0.17353,17.47567 l -1.16488,12.90488 c -0.82854,5.03795 -1.44535,9.97344 -1.65226,14.71058 -0.59003,3.64336 -0.68882,7.04902 -0.66091,10.39336 v 0 l 1.49245,-2.58395 c 0.79952,-2.69189 1.82587,-4.94475 3.06598,-6.78388 1.56375,-2.7363 3.24461,-5.35927 5.46277,-7.46228 1.86,-1.80902 3.67342,-3.61806 5.95845,-5.4271 2.31232,-1.86317 4.84115,-3.41207 7.59409,-4.63565 2.99868,-1.63081 5.99738,-2.95165 8.99607,-3.73114 3.46602,-0.84217 6.93205,-1.36613 10.39807,-1.35677 3.84285,-0.2893 6.95599,0.12757 10.1644,0.45225 0.38053,-0.2762 10.66176,3.25708 10.63172,3.84421 0.58796,-0.12407 8.26334,4.86033 8.16408,5.14846 2.82135,2.73946 5.79655,5.35981 7.55988,8.91839 1.51876,2.13778 2.41916,4.47505 3.29011,6.82181 0.94124,2.69402 1.74742,5.32266 1.81751,7.59514 0.52327,3.61107 0.16962,6.79781 -0.16525,9.9936 -0.33997,4.14151 -1.44112,7.87962 -2.89146,11.43269 -1.40442,2.31767 -2.80883,4.06842 -4.21325,5.75631 -1.87601,2.33302 -3.937,3.94605 -6.03074,5.43652 -1.73745,1.69806 -3.75792,2.57452 -5.70029,3.67765 -2.23053,0.87181 -4.46108,1.48838 -6.69163,2.15862 -2.1204,0.31647 -4.24079,0.70028 -6.36119,0.39974 -2.01704,0.17964 -3.98459,0.21557 -5.7829,-0.23984 -1.90009,-0.48793 -3.80019,-1.04075 -5.70028,-2.15862 l -4.79155,-2.79821 -4.29587,-3.67765 c -1.62399,-1.56921 -3.18251,-3.15854 -3.80019,-5.03678 -1.16114,-1.73725 -1.71368,-3.77683 -2.06531,-5.91621 l -0.41307,-5.11672 1.23919,-3.9175 1.90009,-3.5977 2.39578,-2.55836 0.0826,2.47842 v 3.91748 l 0.74352,3.27791 1.40441,1.83883 c 0.61477,0.95938 1.68429,1.91876 2.72623,2.87815 1.26774,1.06893 2.33593,1.5585 3.38713,1.99873 1.65225,0.58238 3.3045,1.04148 4.95676,1.19923 l 4.37848,0.08 2.64362,-0.63959 c 1.67888,-0.42815 3.25034,-1.06424 4.70893,-1.91877 l 2.14793,-1.99872 c 1.1612,-1.42799 2.47161,-2.92818 3.2219,-4.15735 0.67775,-1.55998 1.13795,-3.04981 1.15658,-4.39719 l 0.16523,-3.75759 c 0.0138,-1.82429 -0.50388,-3.34866 -1.15659,-4.79693 l -1.40441,-2.39847 v 0 h 0.16522 l -2.06532,-3.67764 c -1.17379,-1.08265 -2.26801,-2.08828 -3.2219,-2.95811 -0.84103,-1.07821 -2.11653,-1.73596 -3.38712,-2.39847 l -3.8828,-1.43908 -4.95678,-0.23984 -5.78289,0.71954 -6.3612,2.15862 -4.95676,2.79821 -4.70894,3.5977 -3.96541,5.03678 -2.06531,3.51774 c -0.78307,1.75888 -1.57862,3.51775 -2.14794,5.27662 -0.67259,1.57233 -1.08957,3.14466 -1.32182,4.71698 l -0.57828,4.23729 c -0.16585,1.75857 -0.10952,3.62465 0.16523,5.59643 -0.29846,2.19535 0.35886,3.69699 0.90874,5.27662 0.37992,1.78823 1.17077,3.37762 1.9827,4.95682 0.88646,1.78044 1.95209,3.3875 3.05668,4.95683 l 3.05667,3.03806 4.21326,2.9581 4.79155,2.79822 3.96541,1.83881 2.89145,1.27919 -1.90009,0.95939 -2.80884,0.55963 -6.85686,0.08 -6.11336,-1.19923 -6.36119,-1.91877 -4.87415,-2.47842 c -2.80465,-1.62563 -4.81818,-3.25125 -6.52642,-4.87688 l -3.96541,-4.07739 c -1.68366,-1.52667 -2.8551,-3.21856 -3.88281,-4.95684 -1.03742,-1.61204 -2.03941,-3.27554 -2.64362,-5.51646 -1.04308,-1.69063 -1.89671,-3.2896 -2.06531,-4.55708 l -1.65226,-6.31596 c -0.46592,-2.19272 -0.92347,-4.38004 -0.7435,-6.15606 -0.57954,-3.78485 -0.37011,-7.18793 -0.0827,-10.55324 l 0.99135,-7.6751 0.74352,-7.19539 c 0.40451,-2.94157 0.77946,-5.74596 0.74351,-7.83499 0.28446,-2.39792 0.43119,-3.99608 0.49568,-5.11673 0,0 0.17932,-5.04138 0.24784,-5.51646 0.15662,-1.08601 0.21733,-9.15593 0.16523,-8.95427 l -0.90875,-7.67509 c -0.61578,-2.90804 -1.15837,-5.87072 -2.39576,-8.31469 -0.92337,-3.14421 -2.07472,-5.04201 -2.97407,-6.95554 -1.05446,-1.90849 -2.19248,-3.91809 -2.39578,-4.79693 -1.31178,-2.6359 -2.82133,-5.1442 -4.79153,-7.3553 -1.98271,-3.02088 -3.96543,-4.97247 -5.94813,-7.1954 -1.68003,-2.21817 -3.87467,-3.32806 -5.86551,-4.87687 -2.53347,-1.53003 -5.06692,-2.8649 -7.60039,-3.7576 -2.61085,-1.38437 -5.26671,-2.55099 -8.09605,-2.87815 l -7.60038,-1.19924 -10.07877,-1.27918 -9.33525,-0.95938 -4.37848,-0.4797 -10.73967,-1.35912 -12.80498,-2.23857 -12.80499,-3.03805 c -5.12564,-1.52557 -9.82599,-3.32551 -14.29202,-5.27662 -0.39272,0.57006 -11.26583,-5.43785 -11.81364,-5.59643 -0.8033,-0.23254 -12.05797,-7.47691 -11.97885,-7.5152 l -7.10472,-5.83626 -3.2219,-2.87816 -4.70892,-5.27662 -5.70029,-7.91493 -4.54371,-7.83498 -3.1393,-7.11546 -2.47838,-6.47585 -1.90009,-5.35657 -0.49568,-4.15734 0.0826,-0.1599 2.06532,2.71826 4.62631,8.95427 c 2.2209,3.39384 4.11778,7.10126 6.9395,9.91365 1.63938,2.90308 3.81019,4.77757 5.86552,6.87561 -0.55052,0.77914 8.20946,8.4892 8.75694,8.79437 0.76085,0.42408 8.97167,6.35036 9.00481,6.0761 l 8.50912,4.63704 5.53506,2.31853 8.09605,2.87814 c 4.57125,1.6034 9.1425,2.76713 13.71374,3.51776 4.52616,1.20159 8.82258,1.7362 13.13544,2.31852 l 11.81363,1.27918 18.75312,1.35913 14.87031,1.03933 8.42651,1.27918 3.30451,1.51903 -1.56965,-2.95811 -2.6436,-4.63704 c -1.10632,-2.92885 -2.6063,-5.84597 -3.05668,-8.79437 -1.15747,-3.2779 -1.82614,-6.5558 -2.56099,-9.8337 -0.46265,-3.00342 -0.22575,-5.71092 -0.24784,-8.07483 0.24262,-3.64453 0.20308,-6.46252 0.6609,-9.27407 0.33045,-3.66888 0.6609,-6.33445 0.99135,-9.19412 l 0.82613,-9.9936 c 0.5663,-3.63704 0.59148,-5.44124 0.74351,-7.67508 0.65019,-2.34023 0.52641,-3.70843 0.57829,-5.27663 l -0.24783,-3.5977 -2.47838,6.31596 c -0.52775,2.60729 -2.01104,4.28984 -3.38714,6.0761 -1.79991,2.70296 -4.24687,4.98845 -6.69164,7.27535 -2.40292,2.82087 -5.2667,4.52679 -8.09605,6.31596 -3.99296,2.57268 -7.98591,3.76893 -11.97886,4.87688 -3.16724,1.23544 -5.47315,1.45471 -8.01345,1.67892 -3.4938,0.66011 -7.50001,-0.22052 -10.98751,-0.31978 -3.44966,-0.85404 -6.98441,-1.64632 -9.58308,-3.11802 l -7.0221,-3.67764 c -2.81273,-1.95591 -5.33599,-3.88209 -7.26993,-6.47584 -2.35934,-2.55057 -3.8138,-4.95221 -5.03937,-7.03551 -1.62357,-2.71826 -2.50663,-5.43652 -2.80885,-8.15478 -0.86901,-2.82686 -0.9744,-5.29423 -0.99134,-6.55581 l -0.16523,-4.31724 c 0.15736,-2.5736 0.29107,-5.19293 0.6609,-7.35529 0.5339,-2.20755 0.52784,-4.14391 1.48703,-5.11673 0.45295,-1.92951 1.83349,-3.78136 2.80884,-5.03678 1.51457,-2.73135 3.02913,-4.09985 4.5437,-5.59642 1.70734,-1.72793 3.41466,-2.96188 5.122,-3.83754 2.4285,-1.36065 4.79876,-3.00315 7.43516,-3.35784 2.4233,-1.47785 4.84662,-1.59373 7.26992,-2.07868 1.97002,-0.14281 3.80732,-0.20002 5.122,0.08 2.64847,0.2665 4.40151,0.533 6.4438,0.79949 1.95406,0.69982 3.86665,1.40967 4.95676,2.31852 l 4.54372,3.43779 4.13064,4.79693 2.97406,4.63704 1.65225,4.39718 v 5.59643 l -1.48703,4.07739 -2.39577,4.23729 -1.48703,1.43907 -0.0827,-2.31851 c 0.0927,-1.77988 0.36508,-3.61775 -0.16522,-5.19668 -0.29046,-2.05376 -1.22888,-3.48359 -2.39578,-4.47713 -1.6281,-2.06717 -3.00262,-3.23442 -4.70892,-4.31724 -1.52064,-1.27054 -3.29857,-1.60683 -5.03937,-1.59897 l -4.62633,0.08 c -1.76467,0.40716 -3.80102,0.63905 -4.95678,1.43907 -2.22396,0.80373 -3.88075,1.9734 -5.45244,3.19796 -1.35717,1.28148 -2.05341,2.61095 -2.97406,4.23728 -0.7494,1.73222 -1.28303,3.46445 -1.81748,5.19668 -0.002,1.59898 0.11184,3.19795 0.33045,4.79693 0.28181,2.23235 1.4175,3.63834 2.31316,5.27663 l 2.39577,3.4378 4.37848,3.75759 c 0.27567,1.06713 5.86551,2.39847 5.86551,2.39847 1.46907,0.41988 7.51588,0.62373 7.35254,0.31979 l 5.61767,-1.03934 c 1.99535,-0.8139 3.97155,-1.64634 5.53506,-2.87815 0.85883,0.16623 5.00968,-2.45219 5.03939,-2.79822 0.73576,-0.18176 4.50384,-4.00708 4.21326,-4.07738 2.22738,-2.34627 2.96755,-3.48657 4.21325,-5.03679 l 2.06531,-4.39717 1.81749,-5.59643 0.99136,-5.43652 -0.0827,-5.83626 -0.57829,-3.35786 -1.56964,-4.79692 -2.64361,-4.87689 -3.13929,-3.59769 -2.72623,-2.79821 -4.04803,-2.79821 -3.96542,-2.15862 -2.97405,-1.43908 -2.23055,-0.63959 -1.98271,-0.55964 2.72623,-1.27918 3.22189,-0.4797 c 1.97033,-0.18255 3.10859,-0.0967 4.4611,-0.08 0,0 4.87416,0.23984 5.2046,0.31979 0.33047,0.08 4.70894,0.9594 5.122,1.19923 0.41307,0.23985 4.04803,1.11929 4.37848,1.43908 0.33046,0.3198 4.79155,2.31852 4.79155,2.31852 l 4.29587,2.9581 4.13064,3.7576 4.70893,5.75632 2.64361,4.31723 c 0,0 0.90874,2.55836 1.07396,2.87816 0.16524,0.3198 2.39578,5.83627 2.39578,5.83627 l 1.40441,5.11673 0.66091,5.75631 0.0827,7.91494 -0.49568,7.51519 -0.66091,6.39591 -0.57828,5.83626 -0.66091,6.47585 -0.82613,9.11417 -0.0826,6.95556 c -0.0735,2.05639 0.21591,4.28845 0.57829,6.5558 -0.23951,2.26521 0.36955,4.53043 0.99136,6.79565 0.66444,2.60164 0.86095,5.35422 2.14793,7.75503 l 1.9827,3.7576 2.64362,5.35657 c 0,0 4.46109,7.67509 4.70893,7.99489 0.24784,0.31979 6.27856,6.95555 6.60902,7.19538 0.11226,0.66216 4.3213,4.02817 4.79155,3.9175 0.24784,0.3198 6.44379,3.51775 6.44379,3.51775 -0.14435,0.27941 7.94315,3.33401 8.67436,3.35786 0.68085,0.0222 8.01344,1.83882 8.50912,1.83882 0.49567,0 12.06147,1.35913 12.06147,1.35913 l 11.6484,1.27918 8.59174,0.95939 7.43516,0.87944 c 0,0 10.07877,2.15861 10.40922,2.23856 0.33045,0.08 9.99616,2.79821 10.57444,2.87816 0.57829,0.08 10.3266,3.118 10.3266,3.118 l 6.69164,2.63832 8.26127,3.99744 6.27857,3.75758 c 0,0 6.69165,4.5571 6.85691,4.87689 0.16519,0.3198 5.36981,4.63703 5.36981,4.63703 2.86033,2.26999 4.80265,4.76927 7.02209,7.03551 l 3.55237,3.91748 5.12198,6.55581 3.05666,5.51647 c 0,0 3.55236,6.47585 3.63498,6.79565 0.0827,0.31979 2.97405,7.75504 2.97405,7.75504 l 0.99134,5.11673 -0.0826,3.35785 -0.24788,1.91877 -1.48699,-3.43781 c -0.82616,-1.81713 -1.6523,-3.63568 -2.47839,-5.03677 -1.18412,-2.32107 -2.36825,-4.44382 -3.55237,-6.55581 -0.65527,-2.02372 -1.57582,-3.70517 -2.89146,-4.87687 l -4.04801,-5.19668 c -1.42283,-1.74107 -2.70822,-3.61514 -4.54371,-4.95682 -1.40134,-2.10829 -3.40143,-3.63714 -5.45242,-5.11673 l -5.94813,-5.03677 -4.46109,-2.87817 -4.21326,-2.31851 -6.69165,-3.35786 -9.58309,-3.91749 -9.58309,-2.71825 -8.17867,-1.99873 c -4.48729,-0.85538 -9.00863,-1.64487 -13.71373,-2.07867 -4.06519,-0.39753 -7.9035,-1.08415 -12.39193,-1.27918 -3.54863,-0.45613 -7.27528,-0.38105 -10.82228,-0.63958 l -5.94812,-0.23986 -3.55235,-0.23984 c 0,0 -4.95677,-0.55964 -5.36984,-0.55964 -0.41306,0 -6.03073,-0.23985 -6.03073,-0.23985 l -6.11335,-1.27918 -4.70894,-1.03934 c 2.09671,2.78988 3.80024,5.77001 4.65467,9.16101 z"
       id="path10963"
       inkscape:connector-curvature="0"
       sodipodi:nodetypes="ccccccccccccccccccccccccccccccccccccccccccccccccccccccccccccccccccccccccccccccccccccccccccccccccsccccccccccccccccccscccccccccccccccsccccccccccccccccccccccccccccccccccccccccccccccccccccccccccccccccccccsccccccccccccccccccccccccsccccccccccccccccccccccscccssccccccccccccccccccccccccccccccccccccccccscccc" />
  </g>
</svg>
