<svg width="350" height="360" xmlns="http://www.w3.org/2000/svg">
 <metadata id="metadata51">image/svg+xml</metadata>

 <g>
  <title>background</title>
  <rect fill="none" id="canvas_background" height="362" width="352" y="-1" x="-1"/>
 </g>
 <g>
  <title>Layer 1</title>
  <g id="layer7">
   <path fill="#ffffff" stroke="#0660e7" stroke-width="2" stroke-miterlimit="4" d="m232.18487,2.39496c-4.2206,59.11505 30.62588,126.81703 112.72496,120.12705l0,-1.21009l-0.30252,115.26051l0,0l0.15126,-0.15126c-59.26631,-4.06934 -119.58852,39.75156 -112.89854,121.85064l1.21009,0l-115.2605,-0.30252l0,0l0.15126,0.7563c4.06933,-58.66126 -30.26516,-127.65926 -112.36424,-120.96928l0,1.21009l0.30252,-115.26051l0,0l-0.15126,0.15127c59.26631,4.06933 119.07653,-39.66564 112.38655,-121.76472l-1.21009,0l115.26051,0.30252l0,0l-0.30253,-0.30252" id="path6780"/>
  </g>
  <g display="inline" id="layer1">
   <circle fill="#0660e7" stroke-width="0.996623" r="118.108498" cy="179.69278" cx="174.71948" id="path344"/>
  </g>
  <g id="layer31">
   <path fill="#000000" stroke="#ffffff" stroke-width="1.164523" stroke-miterlimit="4" id="path10963" d="m201.38737,206.13671c2.4189,4.407 3.35965,9.17163 4.59797,13.86426c1.70726,6.13041 0.52935,11.94672 0.17353,17.47567l-1.16488,12.90488c-0.82854,5.03795 -1.44535,9.97344 -1.65226,14.71058c-0.59003,3.64336 -0.68882,7.04902 -0.66091,10.39336l0,0l1.49245,-2.58395c0.79952,-2.69189 1.82587,-4.94475 3.06598,-6.78388c1.56375,-2.7363 3.24461,-5.35927 5.46277,-7.46228c1.86,-1.80902 3.67342,-3.61806 5.95845,-5.4271c2.31232,-1.86317 4.84115,-3.41207 7.59409,-4.63565c2.99868,-1.63081 5.99738,-2.95165 8.99607,-3.73114c3.46602,-0.84217 6.93205,-1.36613 10.39807,-1.35677c3.84285,-0.2893 6.95599,0.12757 10.1644,0.45225c0.38053,-0.2762 10.66176,3.25708 10.63172,3.84421c0.58796,-0.12407 8.26334,4.86033 8.16408,5.14846c2.82135,2.73946 5.79655,5.35981 7.55988,8.91839c1.51876,2.13778 2.41916,4.47505 3.29011,6.82181c0.94124,2.69402 1.74742,5.32266 1.81751,7.59514c0.52327,3.61107 0.16962,6.79781 -0.16525,9.9936c-0.33997,4.14151 -1.44112,7.87962 -2.89146,11.43269c-1.40442,2.31767 -2.80883,4.06842 -4.21325,5.75631c-1.87601,2.33302 -3.937,3.94605 -6.03074,5.43652c-1.73745,1.69806 -3.75792,2.57452 -5.70029,3.67765c-2.23053,0.87181 -4.46108,1.48838 -6.69163,2.15862c-2.1204,0.31647 -4.24079,0.70028 -6.36119,0.39974c-2.01704,0.17964 -3.98459,0.21557 -5.7829,-0.23984c-1.90009,-0.48793 -3.80019,-1.04075 -5.70028,-2.15862l-4.79155,-2.79821l-4.29587,-3.67765c-1.62399,-1.56921 -3.18251,-3.15854 -3.80019,-5.03678c-1.16114,-1.73725 -1.71368,-3.77683 -2.06531,-5.91621l-0.41307,-5.11672l1.23919,-3.9175l1.90009,-3.5977l2.39578,-2.55836l0.0826,2.47842l0,3.91748l0.74352,3.27791l1.40441,1.83883c0.61477,0.95938 1.68429,1.91876 2.72623,2.87815c1.26774,1.06893 2.33593,1.5585 3.38713,1.99873c1.65225,0.58238 3.3045,1.04148 4.95676,1.19923l4.37848,0.08l2.64362,-0.63959c1.67888,-0.42815 3.25034,-1.06424 4.70893,-1.91877l2.14793,-1.99872c1.1612,-1.42799 2.47161,-2.92818 3.2219,-4.15735c0.67775,-1.55998 1.13795,-3.04981 1.15658,-4.39719l0.16523,-3.75759c0.0138,-1.82429 -0.50388,-3.34866 -1.15659,-4.79693l-1.40441,-2.39847l0,0l0.16522,0l-2.06532,-3.67764c-1.17379,-1.08265 -2.26801,-2.08828 -3.2219,-2.95811c-0.84103,-1.07821 -2.11653,-1.73596 -3.38712,-2.39847l-3.8828,-1.43908l-4.95678,-0.23984l-5.78289,0.71954l-6.3612,2.15862l-4.95676,2.79821l-4.70894,3.5977l-3.96541,5.03678l-2.06531,3.51774c-0.78307,1.75888 -1.57862,3.51775 -2.14794,5.27662c-0.67259,1.57233 -1.08957,3.14466 -1.32182,4.71698l-0.57828,4.23729c-0.16585,1.75857 -0.10952,3.62465 0.16523,5.59643c-0.29846,2.19535 0.35886,3.69699 0.90874,5.27662c0.37992,1.78823 1.17077,3.37762 1.9827,4.95682c0.88646,1.78044 1.95209,3.3875 3.05668,4.95683l3.05667,3.03806l4.21326,2.9581l4.79155,2.79822l3.96541,1.83881l2.89145,1.27919l-1.90009,0.95939l-2.80884,0.55963l-6.85686,0.08l-6.11336,-1.19923l-6.36119,-1.91877l-4.87415,-2.47842c-2.80465,-1.62563 -4.81818,-3.25125 -6.52642,-4.87688l-3.96541,-4.07739c-1.68366,-1.52667 -2.8551,-3.21856 -3.88281,-4.95684c-1.03742,-1.61204 -2.03941,-3.27554 -2.64362,-5.51646c-1.04308,-1.69063 -1.89671,-3.2896 -2.06531,-4.55708l-1.65226,-6.31596c-0.46592,-2.19272 -0.92347,-4.38004 -0.7435,-6.15606c-0.57954,-3.78485 -0.37011,-7.18793 -0.0827,-10.55324l0.99135,-7.6751l0.74352,-7.19539c0.40451,-2.94157 0.77946,-5.74596 0.74351,-7.83499c0.28446,-2.39792 0.43119,-3.99608 0.49568,-5.11673c0,0 0.17932,-5.04138 0.24784,-5.51646c0.15662,-1.08601 0.21733,-9.15593 0.16523,-8.95427l-0.90875,-7.67509c-0.61578,-2.90804 -1.15837,-5.87072 -2.39576,-8.31469c-0.92337,-3.14421 -2.07472,-5.04201 -2.97407,-6.95554c-1.05446,-1.90849 -2.19248,-3.91809 -2.39578,-4.79693c-1.31178,-2.6359 -2.82133,-5.1442 -4.79153,-7.3553c-1.98271,-3.02088 -3.96543,-4.97247 -5.94813,-7.1954c-1.68003,-2.21817 -3.87467,-3.32806 -5.86551,-4.87687c-2.53347,-1.53003 -5.06692,-2.8649 -7.60039,-3.7576c-2.61085,-1.38437 -5.26671,-2.55099 -8.09605,-2.87815l-7.60038,-1.19924l-10.07877,-1.27918l-9.33525,-0.95938l-4.37848,-0.4797l-10.73967,-1.35912l-12.80498,-2.23857l-12.80499,-3.03805c-5.12564,-1.52557 -9.82599,-3.32551 -14.29202,-5.27662c-0.39272,0.57006 -11.26583,-5.43785 -11.81364,-5.59643c-0.8033,-0.23254 -12.05797,-7.47691 -11.97885,-7.5152l-7.10472,-5.83626l-3.2219,-2.87816l-4.70892,-5.27662l-5.70029,-7.91493l-4.54371,-7.83498l-3.1393,-7.11546l-2.47838,-6.47585l-1.90009,-5.35657l-0.49568,-4.15734l0.0826,-0.1599l2.06532,2.71826l4.62631,8.95427c2.2209,3.39384 4.11778,7.10126 6.9395,9.91365c1.63938,2.90308 3.81019,4.77757 5.86552,6.87561c-0.55052,0.77914 8.20946,8.4892 8.75694,8.79437c0.76085,0.42408 8.97167,6.35036 9.00481,6.0761l8.50912,4.63704l5.53506,2.31853l8.09605,2.87814c4.57125,1.6034 9.1425,2.76713 13.71374,3.51776c4.52616,1.20159 8.82258,1.7362 13.13544,2.31852l11.81363,1.27918l18.75312,1.35913l14.87031,1.03933l8.42651,1.27918l3.30451,1.51903l-1.56965,-2.95811l-2.6436,-4.63704c-1.10632,-2.92885 -2.6063,-5.84597 -3.05668,-8.79437c-1.15747,-3.2779 -1.82614,-6.5558 -2.56099,-9.8337c-0.46265,-3.00342 -0.22575,-5.71092 -0.24784,-8.07483c0.24262,-3.64453 0.20308,-6.46252 0.6609,-9.27407c0.33045,-3.66888 0.6609,-6.33445 0.99135,-9.19412l0.82613,-9.9936c0.5663,-3.63704 0.59148,-5.44124 0.74351,-7.67508c0.65019,-2.34023 0.52641,-3.70843 0.57829,-5.27663l-0.24783,-3.5977l-2.47838,6.31596c-0.52775,2.60729 -2.01104,4.28984 -3.38714,6.0761c-1.79991,2.70296 -4.24687,4.98845 -6.69164,7.27535c-2.40292,2.82087 -5.2667,4.52679 -8.09605,6.31596c-3.99296,2.57268 -7.98591,3.76893 -11.97886,4.87688c-3.16724,1.23544 -5.47315,1.45471 -8.01345,1.67892c-3.4938,0.66011 -7.50001,-0.22052 -10.98751,-0.31978c-3.44966,-0.85404 -6.98441,-1.64632 -9.58308,-3.11802l-7.0221,-3.67764c-2.81273,-1.95591 -5.33599,-3.88209 -7.26993,-6.47584c-2.35934,-2.55057 -3.8138,-4.95221 -5.03937,-7.03551c-1.62357,-2.71826 -2.50663,-5.43652 -2.80885,-8.15478c-0.86901,-2.82686 -0.9744,-5.29423 -0.99134,-6.55581l-0.16523,-4.31724c0.15736,-2.5736 0.29107,-5.19293 0.6609,-7.35529c0.5339,-2.20755 0.52784,-4.14391 1.48703,-5.11673c0.45295,-1.92951 1.83349,-3.78136 2.80884,-5.03678c1.51457,-2.73135 3.02913,-4.09985 4.5437,-5.59642c1.70734,-1.72793 3.41466,-2.96188 5.122,-3.83754c2.4285,-1.36065 4.79876,-3.00315 7.43516,-3.35784c2.4233,-1.47785 4.84662,-1.59373 7.26992,-2.07868c1.97002,-0.14281 3.80732,-0.20002 5.122,0.08c2.64847,0.2665 4.40151,0.533 6.4438,0.79949c1.95406,0.69982 3.86665,1.40967 4.95676,2.31852l4.54372,3.43779l4.13064,4.79693l2.97406,4.63704l1.65225,4.39718l0,5.59643l-1.48703,4.07739l-2.39577,4.23729l-1.48703,1.43907l-0.0827,-2.31851c0.0927,-1.77988 0.36508,-3.61775 -0.16522,-5.19668c-0.29046,-2.05376 -1.22888,-3.48359 -2.39578,-4.47713c-1.6281,-2.06717 -3.00262,-3.23442 -4.70892,-4.31724c-1.52064,-1.27054 -3.29857,-1.60683 -5.03937,-1.59897l-4.62633,0.08c-1.76467,0.40716 -3.80102,0.63905 -4.95678,1.43907c-2.22396,0.80373 -3.88075,1.9734 -5.45244,3.19796c-1.35717,1.28148 -2.05341,2.61095 -2.97406,4.23728c-0.7494,1.73222 -1.28303,3.46445 -1.81748,5.19668c-0.002,1.59898 0.11184,3.19795 0.33045,4.79693c0.28181,2.23235 1.4175,3.63834 2.31316,5.27663l2.39577,3.4378l4.37848,3.75759c0.27567,1.06713 5.86551,2.39847 5.86551,2.39847c1.46907,0.41988 7.51588,0.62373 7.35254,0.31979l5.61767,-1.03934c1.99535,-0.8139 3.97155,-1.64634 5.53506,-2.87815c0.85883,0.16623 5.00968,-2.45219 5.03939,-2.79822c0.73576,-0.18176 4.50384,-4.00708 4.21326,-4.07738c2.22738,-2.34627 2.96755,-3.48657 4.21325,-5.03679l2.06531,-4.39717l1.81749,-5.59643l0.99136,-5.43652l-0.0827,-5.83626l-0.57829,-3.35786l-1.56964,-4.79692l-2.64361,-4.87689l-3.13929,-3.59769l-2.72623,-2.79821l-4.04803,-2.79821l-3.96542,-2.15862l-2.97405,-1.43908l-2.23055,-0.63959l-1.98271,-0.55964l2.72623,-1.27918l3.22189,-0.4797c1.97033,-0.18255 3.10859,-0.0967 4.4611,-0.08c0,0 4.87416,0.23984 5.2046,0.31979c0.33047,0.08 4.70894,0.9594 5.122,1.19923c0.41307,0.23985 4.04803,1.11929 4.37848,1.43908c0.33046,0.3198 4.79155,2.31852 4.79155,2.31852l4.29587,2.9581l4.13064,3.7576l4.70893,5.75632l2.64361,4.31723c0,0 0.90874,2.55836 1.07396,2.87816c0.16524,0.3198 2.39578,5.83627 2.39578,5.83627l1.40441,5.11673l0.66091,5.75631l0.0827,7.91494l-0.49568,7.51519l-0.66091,6.39591l-0.57828,5.83626l-0.66091,6.47585l-0.82613,9.11417l-0.0826,6.95556c-0.0735,2.05639 0.21591,4.28845 0.57829,6.5558c-0.23951,2.26521 0.36955,4.53043 0.99136,6.79565c0.66444,2.60164 0.86095,5.35422 2.14793,7.75503l1.9827,3.7576l2.64362,5.35657c0,0 4.46109,7.67509 4.70893,7.99489c0.24784,0.31979 6.27856,6.95555 6.60902,7.19538c0.11226,0.66216 4.3213,4.02817 4.79155,3.9175c0.24784,0.3198 6.44379,3.51775 6.44379,3.51775c-0.14435,0.27941 7.94315,3.33401 8.67436,3.35786c0.68085,0.0222 8.01344,1.83882 8.50912,1.83882c0.49567,0 12.06147,1.35913 12.06147,1.35913l11.6484,1.27918l8.59174,0.95939l7.43516,0.87944c0,0 10.07877,2.15861 10.40922,2.23856c0.33045,0.08 9.99616,2.79821 10.57444,2.87816c0.57829,0.08 10.3266,3.118 10.3266,3.118l6.69164,2.63832l8.26127,3.99744l6.27857,3.75758c0,0 6.69165,4.5571 6.85691,4.87689c0.16519,0.3198 5.36981,4.63703 5.36981,4.63703c2.86033,2.26999 4.80265,4.76927 7.02209,7.03551l3.55237,3.91748l5.12198,6.55581l3.05666,5.51647c0,0 3.55236,6.47585 3.63498,6.79565c0.0827,0.31979 2.97405,7.75504 2.97405,7.75504l0.99134,5.11673l-0.0826,3.35785l-0.24788,1.91877l-1.48699,-3.43781c-0.82616,-1.81713 -1.6523,-3.63568 -2.47839,-5.03677c-1.18412,-2.32107 -2.36825,-4.44382 -3.55237,-6.55581c-0.65527,-2.02372 -1.57582,-3.70517 -2.89146,-4.87687l-4.04801,-5.19668c-1.42283,-1.74107 -2.70822,-3.61514 -4.54371,-4.95682c-1.40134,-2.10829 -3.40143,-3.63714 -5.45242,-5.11673l-5.94813,-5.03677l-4.46109,-2.87817l-4.21326,-2.31851l-6.69165,-3.35786l-9.58309,-3.91749l-9.58309,-2.71825l-8.17867,-1.99873c-4.48729,-0.85538 -9.00863,-1.64487 -13.71373,-2.07867c-4.06519,-0.39753 -7.9035,-1.08415 -12.39193,-1.27918c-3.54863,-0.45613 -7.27528,-0.38105 -10.82228,-0.63958l-5.94812,-0.23986l-3.55235,-0.23984c0,0 -4.95677,-0.55964 -5.36984,-0.55964c-0.41306,0 -6.03073,-0.23985 -6.03073,-0.23985l-6.11335,-1.27918l-4.70894,-1.03934c2.09671,2.78988 3.80024,5.77001 4.65467,9.16101l0.0002,-0.00013z"/>
  </g>
 </g>
</svg>