<svg width="350" height="360" xmlns="http://www.w3.org/2000/svg">
 <metadata id="metadata51">image/svg+xml</metadata>

 <g>
  <title>background</title>
  <rect fill="none" id="canvas_background" height="362" width="352" y="-1" x="-1"/>
 </g>
 <g>
  <title>Layer 1</title>
  <g display="none" id="layer2">
   <rect fill="#000000" stroke="#ee0000" stroke-width="2" stroke-miterlimit="4" y="18.60593" x="9.65604" height="326.00595" width="326.00595" id="rect1152"/>
  </g>
  <g display="none" id="g1160">
   <rect fill="#000000" stroke="#ee0000" stroke-width="2" stroke-miterlimit="4" transform="translate(-271,-248) scale(1,-1) " id="rect1158" width="302.90317" height="304.61447" x="292.86807" y="-584.1413"/>
  </g>
  <g id="layer7">
   <path fill="#ffffff" fill-opacity="0" stroke="#008d51" stroke-width="2" stroke-miterlimit="4" d="m231.18487,2.39496c-4.2206,59.11505 30.62588,126.81703 112.72496,120.12705l0,-1.21009l-0.30252,115.26051l0,0l0.15126,-0.15126c-59.26631,-4.06934 -119.58852,39.75156 -112.89854,121.85064l1.21009,0l-115.2605,-0.30252l0,0l0.15126,0.7563c4.06933,-58.66126 -30.26516,-127.65926 -112.36424,-120.96928l0,1.21009l0.30252,-115.26051l0,0l-0.15126,0.15127c59.26631,4.06933 119.07653,-39.66564 112.38655,-121.76472l-1.21009,0l115.26051,0.30252l0,0l-0.30253,-0.30252" id="path6780"/>
  </g>
  <g display="inline" id="layer1">
   <circle fill="#008d51" stroke-width="0.996623" r="118.108498" cy="179.69278" cx="173.71948" id="path344"/>
  </g>
  <g id="layer16">
   <path fill="#000000" stroke="#ffffff" stroke-width="1.241501" stroke-miterlimit="4" id="path9235-9" d="m89.26285,59.76371c-17.5576,19.88084 -41.60635,15.7769 -59.76505,3.82093l-0.23575,0.12737c22.06718,24.32259 54.95981,23.8024 67.5451,10.18914c14.14531,23.22017 15.76793,54.53511 30.17723,75.52703c10.51051,13.85374 23.086,13.94894 37.36788,2.67466c-1.32898,34.46169 -32.2152,56.44039 -39.60759,95.90533c-9.65764,43.31161 17.55865,82.24046 48.99673,98.38175c-24.15571,-21.33939 -45.07352,-53.50022 -29.67389,-98.34571c29.47525,15.55708 29.2899,39.7759 32.67461,62.50176l-0.1667,-0.18012l0.50012,-0.36024c1.1529,-26.74582 1.49818,-55.78016 -26.67314,-77.81199c11.6538,-29.31088 34.64593,-48.14627 39.00947,-75.83066c20.98767,10.26681 33.33969,-1.5991 40.83519,-25.91206c7.85098,-22.4278 12.33674,-38.72018 20.74684,-55.6582c28.22421,21.17972 55.8606,0.98905 67.89877,-10.31651c-20.40412,12.43809 -43.42403,15.03086 -60.11871,-3.94829c19.98033,-33.14157 49.17442,-38.28911 83.81253,-16.81209c-17.10078,-15.12531 -47.03784,-37.88052 -83.34101,-14.26481c-38.18093,29.97018 -36.91534,114.17836 -76.00177,105.65776c9.57295,-12.68655 12.9485,-16.12412 17.5334,-24.1446l0,0l-0.94303,0.12737c-7.90494,7.49146 -16.81338,14.11554 -26.2872,20.25092c-9.74966,-5.35987 -17.68008,-13.07851 -25.93354,-20.37829c4.85382,8.39324 9.95203,16.63558 16.97469,23.68976c-21.38897,2.13776 -30.3023,-18.91643 -38.66457,-39.10083c-8.25646,-22.09907 -15.15405,-44.80614 -32.77058,-62.66324c-28.41562,-27.134 -66.51494,-10.75 -87.11315,9.80705c33.50897,-18.975 62.80273,-17.43492 83.22312,17.06681z"/>
  </g>
 </g>
</svg>