<?xml version="1.0" encoding="UTF-8" standalone="no"?>
<!DOCTYPE svg PUBLIC "-//W3C//DTD SVG 1.1//EN" "http://www.w3.org/Graphics/SVG/1.1/DTD/svg11.dtd">
<svg version="1.1" xmlns="http://www.w3.org/2000/svg" xmlns:xlink="http://www.w3.org/1999/xlink" preserveAspectRatio="xMidYMid meet" viewBox="0 0 357 357" width="357" height="357"><defs><path d="M235.43 0.67C231.21 59.78 266.06 127.49 348.16 120.8C348.16 120.72 348.16 120.31 348.16 119.59L347.85 234.85L347.85 234.85C347.94 234.76 348 234.71 348.01 234.7C288.74 230.63 228.42 274.45 235.11 356.55C235.19 356.55 235.59 356.55 236.32 356.55L121.06 356.24L121.06 356.24C121.15 356.7 121.2 356.95 121.21 357C125.28 298.34 90.94 229.34 8.84 236.03C8.84 236.11 8.84 236.51 8.84 237.24L9.15 121.98L9.15 121.98C9.06 122.07 9 122.12 8.99 122.13C68.26 126.2 128.07 82.47 121.38 0.37C121.3 0.37 120.9 0.37 120.17 0.37L235.43 0.67L235.43 0.67L235.13 0.37" id="a3fiC8oIOd"></path><path d="M177.3 60.07C112.07 60.07 59.2 112.94 59.2 178.17C59.2 243.4 112.07 296.28 177.3 296.28C242.53 296.28 295.41 243.4 295.41 178.17C295.41 112.94 242.53 60.07 177.3 60.07Z" id="bUYYePO6I"></path><path d="M186.68 189.11C186.68 189.12 186.68 189.19 186.68 189.2C179.35 202.62 168.31 212.32 155.75 220.51C155.73 220.51 155.52 220.51 155.49 220.51C249.74 217.44 210.33 361.09 131.03 296.68C131.03 296.66 131.03 296.51 131.03 296.49C143.46 351.51 199.56 370.38 239.35 337C239.33 336.97 239.27 336.85 239.16 336.62C239.05 336.62 238.99 336.62 238.97 336.62C204.31 349.21 174.37 345.97 160.76 326.22C160.78 326.2 160.92 326.05 160.94 326.03C200.1 328.01 240.41 297.53 215.01 232.21C215.03 232.17 215.17 231.88 215.19 231.84C237.63 236.46 251.28 254.48 262.57 269.37C262.55 269.35 262.4 269.2 262.38 269.18C258.68 243.83 231.65 217.32 194.2 206.94C194.2 206.94 194.2 206.94 194.2 206.94C219.77 148.49 242.81 149.6 273.72 147.31C273.7 147.31 273.55 147.31 273.53 147.31C188 90.32 310.34 5.13 334.1 95.47C334.1 95.47 334.1 95.47 334.1 95.47C345.6 51.09 331.13 -2.08 262.57 4.62C287.66 11.6 322.36 24.78 324.62 54.78C324.62 54.78 324.62 54.78 324.62 54.78C324.62 54.78 324.62 54.78 324.62 54.78C273.82 24.3 236.03 59.66 229.31 106.8C214.48 95.21 209.07 76.47 208.13 51.44C194.74 84.09 217.92 122.75 234.52 139.32C225.13 142.25 217.49 147.03 210.74 152.77C203.78 158.69 197.78 165.62 191.78 172.57C170.6 156.42 165.01 133.65 159.83 110.71C116.81 195.96 12.15 95.47 103.72 54.04C38.36 41.51 8.56 90.08 18.63 133.19C18.63 133.19 18.63 133.19 18.63 133.19C22.83 100.15 36.93 72.93 63.22 67.23C63.22 67.23 63.22 67.23 63.22 67.23C33.55 134.39 91.75 156.98 123.04 158.08C111.77 175.14 90.66 181.06 69.54 184.28C96.31 188.78 130.41 181.08 154.44 151.49C162.84 166.06 174.63 177.7 186.68 189.11Z" id="b2JGr1OW5"></path></defs><g><g><g><use xlink:href="#a3fiC8oIOd" opacity="1" fill="#ffffff" fill-opacity="1"></use><g><use xlink:href="#a3fiC8oIOd" opacity="1" fill-opacity="0" stroke="#ff1a34" stroke-width="2" stroke-opacity="1"></use></g></g><g><use xlink:href="#bUYYePO6I" opacity="1" fill="#ff1a34" fill-opacity="1"></use><g><use xlink:href="#bUYYePO6I" opacity="1" fill-opacity="0" stroke="#000000" stroke-width="1" stroke-opacity="0"></use></g></g><g><use xlink:href="#b2JGr1OW5" opacity="1" fill="#000000" fill-opacity="1"></use><g><use xlink:href="#b2JGr1OW5" opacity="1" fill-opacity="0" stroke="#ffffff" stroke-width="1.57" stroke-opacity="1"></use></g></g></g></g></svg>